<svg fill="none" height="100%" width="100%" viewBox="0 0 500 500" xmlns:xlink="http://www.w3.org/1999/xlink" xmlns="http://www.w3.org/2000/svg"><defs><clipPath id="i0"><rect height="768" width="1366" y="0" x="0" /></clipPath><g id="i1"><g opacity="0" id="i2"><animate repeatCount="indefinite" attributeName="opacity" dur="2s" begin="0s" fill="freeze" values="0; 0; 1; 1; 0; 0" keyTimes="0; 0.09; 0.18; 0.71; 0.85; 1" keySplines="0 0 1 1; 0.333 0 0.667 1; 0.333 0 0.667 1; 0.333 0 0.667 1; 0 0 1 1" calcMode="spline" /><g transform="translate(588.07,213.748)"><animateTransform repeatCount="indefinite" type="translate" attributeName="transform" dur="2s" begin="0s" calcMode="spline" values="588.07 213.748; 797.07 213.748; 797.07 213.748" keyTimes="0; 0.97; 1" keySplines="0.333 0 0.667 1; 0 0 1 1" fill="freeze" /><g transform="scale(0.3,0.3) translate(-212.831,-247.932)"><g id="i3" transform="matrix(1,0,0,1,212.831,247.932)"><path fill="#d0d2d3" d="M59.669,-8.241C53.143,-8.241,47.22,-5.676,42.84,-1.505C42.047,-23.224,24.2,-40.591,2.287,-40.591C-17.518,-40.591,-34.001,-26.403,-37.576,-7.637C-39.31,-8.028,-41.111,-8.241,-42.962,-8.241C-56.447,-8.241,-67.378,2.69,-67.378,16.175C-67.378,16.468,-67.367,16.759,-67.356,17.05C-68.756,16.491,-70.279,16.175,-71.878,16.175C-78.62,16.175,-84.086,21.641,-84.086,28.383C-84.086,35.126,-78.62,40.591,-71.878,40.591C-71.878,40.591,59.669,40.591,59.669,40.591C73.154,40.591,84.086,29.66,84.086,16.175C84.086,2.69,73.154,-8.241,59.669,-8.241Z" /></g></g></g></g><g id="i4"><g transform="translate(684.757,242.431)"><animateTransform repeatCount="indefinite" type="translate" attributeName="transform" dur="2s" begin="0s" calcMode="spline" values="684.757 242.431; 684.757 217.431; 684.757 242.431; 684.757 262.431; 684.757 242.431; 684.757 242.431" keyTimes="0; 0.25; 0.5; 0.75; 0.99; 1" keySplines="0.167 0.167 0.667 1; 0.333 0 0.833 0.833; 0.167 0.167 0.667 1; 0.333 0 0.833 0.833; 0 0 1 1" fill="freeze" /><g transform="scale(1,1) translate(-684.757,-242.431)"><g transform="matrix(0.18,0,0,0.18,598.76,198.119)" id="i5"><g id="i6" transform="matrix(1,0,0,1,491.562,126.758)"><path d="M128.899,110.395C128.899,-11.543,6.195,-110.395,-61.352,-110.395C-128.899,-110.395,-115.71,-11.543,-115.71,110.395C-115.71,110.395,128.899,110.395,128.899,110.395Z" fill="#3931ac"><animate repeatCount="indefinite" attributeName="d" dur="2s" begin="0s" calcMode="spline" values="M128.899,110.395C128.899,-11.543,6.195,-110.395,-61.352,-110.395C-128.899,-110.395,-115.71,-11.543,-115.71,110.395C-115.71,110.395,128.899,110.395,128.899,110.395Z; M128.899,110.395C128.899,-11.543,7.028,-52.062,-60.519,-52.062C-128.066,-52.062,-115.71,-11.543,-115.71,110.395C-115.71,110.395,128.899,110.395,128.899,110.395Z; M128.899,110.395C128.899,-11.543,6.195,-110.395,-61.352,-110.395C-128.899,-110.395,-115.71,-11.543,-115.71,110.395C-115.71,110.395,128.899,110.395,128.899,110.395Z; M128.899,110.395C128.899,-11.543,6.195,-110.395,-61.352,-110.395C-128.899,-110.395,-115.71,-11.543,-115.71,110.395C-115.71,110.395,128.899,110.395,128.899,110.395Z; M128.899,110.395C128.899,-11.543,6.195,-110.395,-61.352,-110.395C-128.899,-110.395,-115.71,-11.543,-115.71,110.395C-115.71,110.395,128.899,110.395,128.899,110.395Z" keyTimes="0; 0.25; 0.5; 0.99; 1" keySplines="0 0 1 1; 0 0 1 1; 0 0 1 1; 0 0 1 1" fill="freeze" /></path></g></g></g></g></g><g id="i4"><g transform="translate(684.757,242.431)"><animateTransform repeatCount="indefinite" type="translate" attributeName="transform" dur="2s" begin="0s" calcMode="spline" values="684.757 242.431; 684.757 217.431; 684.757 242.431; 684.757 262.431; 684.757 242.431; 684.757 242.431" keyTimes="0; 0.25; 0.5; 0.75; 0.99; 1" keySplines="0.167 0.167 0.667 1; 0.333 0 0.833 0.833; 0.167 0.167 0.667 1; 0.333 0 0.833 0.833; 0 0 1 1" fill="freeze" /><g transform="scale(1,1) translate(-684.757,-242.431)"><g transform="matrix(0.18,0,0,0.18,598.76,198.12)" id="i7"><g id="i8" transform="matrix(1,0,0,1,215.705,137.867)"><path d="M89.162,73.843C89.162,-7.723,4.285,-73.843,-42.439,-73.843C-89.162,-73.843,-80.039,-7.723,-80.039,73.843C-80.039,73.843,89.162,73.843,89.162,73.843Z" fill="#3931ac"><animate repeatCount="indefinite" attributeName="d" dur="2s" begin="0s" calcMode="spline" values="M89.162,73.843C89.162,-7.723,4.285,-73.843,-42.439,-73.843C-89.162,-73.843,-80.039,-7.723,-80.039,73.843C-80.039,73.843,89.162,73.843,89.162,73.843Z; M89.162,73.843C89.162,-7.723,9.924,-42.678,-36.8,-42.678C-83.523,-42.678,-80.039,-7.723,-80.039,73.843C-80.039,73.843,89.162,73.843,89.162,73.843Z; M89.162,73.843C89.162,-7.723,4.285,-73.843,-42.439,-73.843C-89.162,-73.843,-80.039,-7.723,-80.039,73.843C-80.039,73.843,89.162,73.843,89.162,73.843Z; M89.162,73.843C89.162,-7.723,4.285,-73.843,-42.439,-73.843C-89.162,-73.843,-80.039,-7.723,-80.039,73.843C-80.039,73.843,89.162,73.843,89.162,73.843Z; M89.162,73.843C89.162,-7.723,4.285,-73.843,-42.439,-73.843C-89.162,-73.843,-80.039,-7.723,-80.039,73.843C-80.039,73.843,89.162,73.843,89.162,73.843Z" keyTimes="0; 0.25; 0.5; 0.99; 1" keySplines="0 0 1 1; 0 0 1 1; 0 0 1 1; 0 0 1 1" fill="freeze" /></path></g></g></g></g></g><g id="i4"><g transform="translate(684.757,242.431)"><animateTransform repeatCount="indefinite" type="translate" attributeName="transform" dur="2s" begin="0s" calcMode="spline" values="684.757 242.431; 684.757 217.431; 684.757 242.431; 684.757 262.431; 684.757 242.431; 684.757 242.431" keyTimes="0; 0.25; 0.5; 0.75; 0.99; 1" keySplines="0.167 0.167 0.667 1; 0.333 0 0.833 0.833; 0.167 0.167 0.667 1; 0.333 0 0.833 0.833; 0 0 1 1" fill="freeze" /><g transform="scale(1,1) translate(-684.757,-242.431)"><g id="i4" transform="matrix(1,0,0,1,0,0)"><g id="i9" transform="matrix(0.18,0,0,0.18,598.76,198.119)"><g id="i10" transform="matrix(1,0,0,1,170.139,169.853)"><path fill="#5d68f9" d="M89.163,73.843C89.163,-7.722,4.286,-73.843,-42.438,-73.843C-89.162,-73.843,-80.039,-7.722,-80.039,73.843C-80.039,73.843,89.163,73.843,89.163,73.843Z" /></g></g><g id="i4" transform="matrix(1,0,0,1,0,0)"><g id="i11" transform="matrix(0.18,0,0,0.18,598.76,198.12)"><g id="i12" transform="matrix(1,0,0,1,758.113,275.116)"><path fill="#474bd8" d="M-43.39,-121.216C-43.39,-121.216,-77.826,-119.815,-77.826,-119.815C-19.798,-110.89,25.008,-60.424,25.008,0C25.008,57.528,-15.61,106.025,-69.582,118.243C-69.582,118.243,-43.39,121.216,-43.39,121.216C23.279,121.216,77.826,66.669,77.826,0C77.826,-66.669,23.279,-121.216,-43.39,-121.216Z" /></g></g><g id="i13" transform="matrix(0.18,0,0,0.18,598.76,198.12)"><g id="i14" transform="matrix(1,0,0,1,436.674,274.399)"><path fill="#5d68f9" d="M351.656,0.717C351.656,0.717,351.656,0.717,351.656,0.717C351.656,-59.706,306.849,-110.173,248.822,-119.097C248.435,-119.157,248.046,-119.206,247.657,-119.262C247.657,-119.262,-269.669,-101.465,-269.669,-101.465C-311.898,-101.465,-346.448,-66.915,-346.448,-24.686C-346.448,-24.686,-346.448,-7.93,-346.448,-7.93C-346.448,34.298,-311.898,68.849,-269.669,68.849C-269.669,68.849,255.691,119.261,255.691,119.261C256.15,119.163,256.608,119.064,257.065,118.96C311.038,106.742,351.656,58.245,351.656,0.717Z" /></g></g></g></g><g id="i15" transform="matrix(0.18,0,0,0.18,598.76,198.12)"><g id="i16" transform="matrix(1,0,0,1,840.441,274.621)"><path fill="#3931ac" d="M15.24,10.458C15.24,10.458,-15.239,10.458,-15.239,10.458C-20.99,10.458,-25.697,5.752,-25.697,0C-25.697,-5.752,-20.99,-10.458,-15.239,-10.458C-15.239,-10.458,15.24,-10.458,15.24,-10.458C20.992,-10.458,25.698,-5.752,25.698,0C25.698,5.752,20.992,10.458,15.24,10.458Z" /></g></g></g></g></g><g id="i4"><g transform="translate(684.757,242.431)"><animateTransform repeatCount="indefinite" type="translate" attributeName="transform" dur="2s" begin="0s" calcMode="spline" values="684.757 242.431; 684.757 217.431; 684.757 242.431; 684.757 262.431; 684.757 242.431; 684.757 242.431" keyTimes="0; 0.25; 0.5; 0.75; 0.99; 1" keySplines="0.167 0.167 0.667 1; 0.333 0 0.833 0.833; 0.167 0.167 0.667 1; 0.333 0 0.833 0.833; 0 0 1 1" fill="freeze" /><g transform="scale(1,1) translate(-684.757,-242.431)"><g transform="matrix(0.18,0,0,0.18,598.76,198.119)" id="i17"><g id="i18" transform="matrix(1,0,0,1,215.705,347.764)"><path fill="#474bd8" d="M89.162,-73.844C89.162,7.721,4.285,73.844,-42.439,73.844C-89.162,73.844,-80.039,7.721,-80.039,-73.844C-80.039,-73.844,89.162,-73.844,89.162,-73.844Z" /></g></g></g></g></g><g id="i4"><g transform="translate(684.757,242.431)"><animateTransform repeatCount="indefinite" type="translate" attributeName="transform" dur="2s" begin="0s" calcMode="spline" values="684.757 242.431; 684.757 217.431; 684.757 242.431; 684.757 262.431; 684.757 242.431; 684.757 242.431" keyTimes="0; 0.25; 0.5; 0.75; 0.99; 1" keySplines="0.167 0.167 0.667 1; 0.333 0 0.833 0.833; 0.167 0.167 0.667 1; 0.333 0 0.833 0.833; 0 0 1 1" fill="freeze" /><g transform="scale(1,1) translate(-684.757,-242.431)"><g transform="matrix(0.18,0,0,0.18,598.761,198.12)" id="i19"><g id="i20" transform="matrix(1,0,0,1,491.562,459.271)"><path d="M128.899,-156.363C128.899,16.351,6.195,156.363,-61.352,156.363C-128.899,156.363,-115.71,16.351,-115.71,-156.363C-115.71,-156.363,128.899,-156.363,128.899,-156.363Z" fill="#474bd8"><animate repeatCount="indefinite" attributeName="d" dur="2s" begin="0s" calcMode="spline" values="M128.899,-156.363C128.899,16.351,6.195,156.363,-61.352,156.363C-128.899,156.363,-115.71,16.351,-115.71,-156.363C-115.71,-156.363,128.899,-156.363,128.899,-156.363Z; M128.899,-156.363C128.899,16.351,11.751,86.919,-55.796,86.919C-123.343,86.919,-115.71,16.351,-115.71,-156.363C-115.71,-156.363,128.899,-156.363,128.899,-156.363Z; M128.899,-156.363C128.899,16.351,6.195,156.363,-61.352,156.363C-128.899,156.363,-115.71,16.351,-115.71,-156.363C-115.71,-156.363,128.899,-156.363,128.899,-156.363Z; M128.899,-156.363C128.899,16.351,6.195,156.363,-61.352,156.363C-128.899,156.363,-115.71,16.351,-115.71,-156.363C-115.71,-156.363,128.899,-156.363,128.899,-156.363Z; M128.899,-156.363C128.899,16.351,6.195,156.363,-61.352,156.363C-128.899,156.363,-115.71,16.351,-115.71,-156.363C-115.71,-156.363,128.899,-156.363,128.899,-156.363Z" keyTimes="0; 0.25; 0.5; 0.99; 1" keySplines="0 0 1 1; 0 0 1 1; 0 0 1 1; 0 0 1 1" fill="freeze" /></path></g></g></g></g></g><g id="i4"><g transform="translate(684.757,242.431)"><animateTransform repeatCount="indefinite" type="translate" attributeName="transform" dur="2s" begin="0s" calcMode="spline" values="684.757 242.431; 684.757 217.431; 684.757 242.431; 684.757 262.431; 684.757 242.431; 684.757 242.431" keyTimes="0; 0.25; 0.5; 0.75; 0.99; 1" keySplines="0.167 0.167 0.667 1; 0.333 0 0.833 0.833; 0.167 0.167 0.667 1; 0.333 0 0.833 0.833; 0 0 1 1" fill="freeze" /><g transform="scale(1,1) translate(-684.757,-242.431)"><g id="i4"><g transform="translate(755.168,247.552)"><g transform="scale(1,1)"><animateTransform repeatCount="indefinite" type="scale" attributeName="transform" dur="2s" begin="0s" calcMode="spline" values="1 1; 1 0.12; 1 1; 1 0.12; 1 1; 1 0.12; 1 1; 1 0.12; 1 1; 1 0.12; 1 1; 1 0.12; 1 1; 1 0.12; 1 1; 1 0.12; 1 1; 1 0.12; 1 1; 1 0.12; 1 1; 1 0.12; 1 1; 1 0.12; 1 1; 1 0.12; 1 1; 1 0.12; 1 1; 1 0.12; 1 1; 1 0.12; 1 1; 1 0.12; 1 0.12" keyTimes="0; 0.03; 0.06; 0.09; 0.12; 0.15; 0.18; 0.21; 0.24; 0.27; 0.3; 0.33; 0.36; 0.39; 0.42; 0.45; 0.48; 0.51; 0.54; 0.57; 0.6; 0.63; 0.66; 0.69; 0.72; 0.75; 0.78; 0.81; 0.84; 0.87; 0.9; 0.93; 0.96; 0.99; 1" keySplines="0.333 0 0.667 1; 0.333 0 0.667 1; 0.333 0 0.667 1; 0.333 0 0.667 1; 0.333 0 0.667 1; 0.333 0 0.667 1; 0.333 0 0.667 1; 0.333 0 0.667 1; 0.333 0 0.667 1; 0.333 0 0.667 1; 0.333 0 0.667 1; 0.333 0 0.667 1; 0.333 0 0.667 1; 0.333 0 0.667 1; 0.333 0 0.667 1; 0.333 0 0.667 1; 0.333 0 0.667 1; 0.333 0 0.667 1; 0.333 0 0.667 1; 0.333 0 0.667 1; 0.333 0 0.667 1; 0.333 0 0.667 1; 0.333 0 0.667 1; 0.333 0 0.667 1; 0.333 0 0.667 1; 0.333 0 0.667 1; 0.333 0 0.667 1; 0.333 0 0.667 1; 0.333 0 0.667 1; 0.333 0 0.667 1; 0.333 0 0.667 1; 0.333 0 0.667 1; 0.333 0 0.667 1; 0 0 1 1" fill="freeze" /><g transform="translate(-755.168,-247.552)"><g id="i21" transform="matrix(0.18,0,0,0.18,598.76,198.12)"><g id="i22" transform="matrix(1,0,0,1,868.936,203.976)"><path fill="#5d68f9" d="M28.838,0C28.838,-39.968,15.927,-72.368,0,-72.368C-15.926,-72.368,-28.838,-39.968,-28.838,0C-28.838,39.967,-15.926,72.368,0,72.368C15.927,72.368,28.838,39.967,28.838,0Z" /></g></g><g id="i23" transform="matrix(0.18,0,0,0.18,598.76,198.12)"><g id="i24" transform="matrix(1,0,0,1,868.936,345.265)"><path fill="#5d68f9" d="M28.838,0C28.838,-39.967,15.927,-72.368,0,-72.368C-15.926,-72.368,-28.838,-39.967,-28.838,0C-28.838,39.968,-15.926,72.368,0,72.368C15.927,72.368,28.838,39.968,28.838,0Z" /></g></g></g></g></g></g></g></g></g><g opacity="0" id="i25"><animate repeatCount="indefinite" attributeName="opacity" dur="2s" begin="0s" fill="freeze" values="0; 0.6; 0.6; 0; 0; 0.6; 0.6; 0; 0" keyTimes="0; 0.04; 0.18; 0.27; 0.64; 0.68; 0.82; 0.91; 1" keySplines="0.333 0 0.667 1; 0.333 0 0.667 1; 0.333 0 0.667 1; 0.333 0 0.667 1; 0.333 0 0.667 1; 0.333 0 0.667 1; 0.333 0 0.667 1; 0 0 1 1" calcMode="spline" /><g transform="translate(764.814,288.834)"><animateTransform repeatCount="indefinite" type="translate" attributeName="transform" dur="2s" begin="0s" calcMode="spline" values="764.814 288.834; 575.814 288.834; 764.814 288.834; 575.814 288.834; 575.814 288.834" keyTimes="0; 0.27; 0.64; 0.91; 1" keySplines="0.333 0 0.667 1; 0.333 0 0.667 1; 0.333 0 0.667 1; 0 0 1 1" fill="freeze" /><g transform="scale(0.3,0.3) translate(-494.744,-359.522)"><g id="i26" transform="matrix(1,0,0,1,494.744,359.522)"><path fill="#d0d2d3" d="M75.133,16.175C74.352,16.175,73.59,16.255,72.85,16.396C72.85,16.321,72.856,16.248,72.856,16.175C72.856,2.69,61.924,-8.242,48.439,-8.242C46.661,-8.242,44.931,-8.047,43.261,-7.686C39.667,-26.428,23.195,-40.592,3.406,-40.592C-16.625,-40.592,-33.255,-26.078,-36.572,-6.996C-38.993,-7.8,-41.578,-8.242,-44.269,-8.242C-57.754,-8.242,-68.685,2.69,-68.685,16.175C-68.685,16.817,-68.653,17.449,-68.604,18.079C-70.494,16.879,-72.729,16.175,-75.133,16.175C-81.875,16.175,-87.341,21.64,-87.341,28.383C-87.341,35.125,-81.875,40.591,-75.133,40.591C-75.133,40.591,75.133,40.591,75.133,40.591C81.875,40.591,87.341,35.125,87.341,28.383C87.341,21.64,81.875,16.175,75.133,16.175Z" /></g></g></g></g></g></defs><g transform="matrix(1.33,0,0,1.33,-658.32,-89.667)" id="i27"><g clip-path="url(#i0)"><g opacity="0"><animate repeatCount="indefinite" attributeName="opacity" dur="2s" begin="0s" fill="freeze" values="0; 0; 1; 1; 0; 0" keyTimes="0; 0.09; 0.18; 0.71; 0.85; 1" keySplines="0 0 1 1; 0.333 0 0.667 1; 0.333 0 0.667 1; 0.333 0 0.667 1; 0 0 1 1" calcMode="spline" /><g transform="translate(588.07,213.748)"><animateTransform repeatCount="indefinite" type="translate" attributeName="transform" dur="2s" begin="0s" calcMode="spline" values="588.07 213.748; 797.07 213.748; 797.07 213.748" keyTimes="0; 0.97; 1" keySplines="0.333 0 0.667 1; 0 0 1 1" fill="freeze" /><g transform="scale(0.3,0.3) translate(-212.831,-247.932)"><g transform="matrix(1,0,0,1,212.831,247.932)"><path fill="#d0d2d3" d="M59.669,-8.241C53.143,-8.241,47.22,-5.676,42.84,-1.505C42.047,-23.224,24.2,-40.591,2.287,-40.591C-17.518,-40.591,-34.001,-26.403,-37.576,-7.637C-39.31,-8.028,-41.111,-8.241,-42.962,-8.241C-56.447,-8.241,-67.378,2.69,-67.378,16.175C-67.378,16.468,-67.367,16.759,-67.356,17.05C-68.756,16.491,-70.279,16.175,-71.878,16.175C-78.62,16.175,-84.086,21.641,-84.086,28.383C-84.086,35.126,-78.62,40.591,-71.878,40.591C-71.878,40.591,59.669,40.591,59.669,40.591C73.154,40.591,84.086,29.66,84.086,16.175C84.086,2.69,73.154,-8.241,59.669,-8.241Z" /></g></g></g></g><g><g transform="translate(684.757,242.431)"><animateTransform repeatCount="indefinite" type="translate" attributeName="transform" dur="2s" begin="0s" calcMode="spline" values="684.757 242.431; 684.757 217.431; 684.757 242.431; 684.757 262.431; 684.757 242.431; 684.757 242.431" keyTimes="0; 0.25; 0.5; 0.75; 0.99; 1" keySplines="0.167 0.167 0.667 1; 0.333 0 0.833 0.833; 0.167 0.167 0.667 1; 0.333 0 0.833 0.833; 0 0 1 1" fill="freeze" /><g transform="scale(1,1) translate(-684.757,-242.431)"><g transform="matrix(0.18,0,0,0.18,598.76,198.119)"><g transform="matrix(1,0,0,1,491.562,126.758)"><path d="M128.899,110.395C128.899,-11.543,6.195,-110.395,-61.352,-110.395C-128.899,-110.395,-115.71,-11.543,-115.71,110.395C-115.71,110.395,128.899,110.395,128.899,110.395Z" fill="#3931ac"><animate repeatCount="indefinite" attributeName="d" dur="2s" begin="0s" calcMode="spline" values="M128.899,110.395C128.899,-11.543,6.195,-110.395,-61.352,-110.395C-128.899,-110.395,-115.71,-11.543,-115.71,110.395C-115.71,110.395,128.899,110.395,128.899,110.395Z; M128.899,110.395C128.899,-11.543,7.028,-52.062,-60.519,-52.062C-128.066,-52.062,-115.71,-11.543,-115.71,110.395C-115.71,110.395,128.899,110.395,128.899,110.395Z; M128.899,110.395C128.899,-11.543,6.195,-110.395,-61.352,-110.395C-128.899,-110.395,-115.71,-11.543,-115.71,110.395C-115.71,110.395,128.899,110.395,128.899,110.395Z; M128.899,110.395C128.899,-11.543,6.195,-110.395,-61.352,-110.395C-128.899,-110.395,-115.71,-11.543,-115.71,110.395C-115.71,110.395,128.899,110.395,128.899,110.395Z; M128.899,110.395C128.899,-11.543,6.195,-110.395,-61.352,-110.395C-128.899,-110.395,-115.71,-11.543,-115.71,110.395C-115.71,110.395,128.899,110.395,128.899,110.395Z" keyTimes="0; 0.25; 0.5; 0.99; 1" keySplines="0 0 1 1; 0 0 1 1; 0 0 1 1; 0 0 1 1" fill="freeze" /></path></g></g></g></g></g><g><g transform="translate(684.757,242.431)"><animateTransform repeatCount="indefinite" type="translate" attributeName="transform" dur="2s" begin="0s" calcMode="spline" values="684.757 242.431; 684.757 217.431; 684.757 242.431; 684.757 262.431; 684.757 242.431; 684.757 242.431" keyTimes="0; 0.25; 0.5; 0.75; 0.99; 1" keySplines="0.167 0.167 0.667 1; 0.333 0 0.833 0.833; 0.167 0.167 0.667 1; 0.333 0 0.833 0.833; 0 0 1 1" fill="freeze" /><g transform="scale(1,1) translate(-684.757,-242.431)"><g transform="matrix(0.18,0,0,0.18,598.76,198.12)"><g transform="matrix(1,0,0,1,215.705,137.867)"><path d="M89.162,73.843C89.162,-7.723,4.285,-73.843,-42.439,-73.843C-89.162,-73.843,-80.039,-7.723,-80.039,73.843C-80.039,73.843,89.162,73.843,89.162,73.843Z" fill="#3931ac"><animate repeatCount="indefinite" attributeName="d" dur="2s" begin="0s" calcMode="spline" values="M89.162,73.843C89.162,-7.723,4.285,-73.843,-42.439,-73.843C-89.162,-73.843,-80.039,-7.723,-80.039,73.843C-80.039,73.843,89.162,73.843,89.162,73.843Z; M89.162,73.843C89.162,-7.723,9.924,-42.678,-36.8,-42.678C-83.523,-42.678,-80.039,-7.723,-80.039,73.843C-80.039,73.843,89.162,73.843,89.162,73.843Z; M89.162,73.843C89.162,-7.723,4.285,-73.843,-42.439,-73.843C-89.162,-73.843,-80.039,-7.723,-80.039,73.843C-80.039,73.843,89.162,73.843,89.162,73.843Z; M89.162,73.843C89.162,-7.723,4.285,-73.843,-42.439,-73.843C-89.162,-73.843,-80.039,-7.723,-80.039,73.843C-80.039,73.843,89.162,73.843,89.162,73.843Z; M89.162,73.843C89.162,-7.723,4.285,-73.843,-42.439,-73.843C-89.162,-73.843,-80.039,-7.723,-80.039,73.843C-80.039,73.843,89.162,73.843,89.162,73.843Z" keyTimes="0; 0.25; 0.5; 0.99; 1" keySplines="0 0 1 1; 0 0 1 1; 0 0 1 1; 0 0 1 1" fill="freeze" /></path></g></g></g></g></g><g><g transform="translate(684.757,242.431)"><animateTransform repeatCount="indefinite" type="translate" attributeName="transform" dur="2s" begin="0s" calcMode="spline" values="684.757 242.431; 684.757 217.431; 684.757 242.431; 684.757 262.431; 684.757 242.431; 684.757 242.431" keyTimes="0; 0.25; 0.5; 0.75; 0.99; 1" keySplines="0.167 0.167 0.667 1; 0.333 0 0.833 0.833; 0.167 0.167 0.667 1; 0.333 0 0.833 0.833; 0 0 1 1" fill="freeze" /><g transform="scale(1,1) translate(-684.757,-242.431)"><g transform="matrix(1,0,0,1,0,0)"><g transform="matrix(0.18,0,0,0.18,598.76,198.119)"><g transform="matrix(1,0,0,1,170.139,169.853)"><path fill="#5d68f9" d="M89.163,73.843C89.163,-7.722,4.286,-73.843,-42.438,-73.843C-89.162,-73.843,-80.039,-7.722,-80.039,73.843C-80.039,73.843,89.163,73.843,89.163,73.843Z" /></g></g><g transform="matrix(1,0,0,1,0,0)"><g transform="matrix(0.18,0,0,0.18,598.76,198.12)"><g transform="matrix(1,0,0,1,758.113,275.116)"><path fill="#474bd8" d="M-43.39,-121.216C-43.39,-121.216,-77.826,-119.815,-77.826,-119.815C-19.798,-110.89,25.008,-60.424,25.008,0C25.008,57.528,-15.61,106.025,-69.582,118.243C-69.582,118.243,-43.39,121.216,-43.39,121.216C23.279,121.216,77.826,66.669,77.826,0C77.826,-66.669,23.279,-121.216,-43.39,-121.216Z" /></g></g><g transform="matrix(0.18,0,0,0.18,598.76,198.12)"><g transform="matrix(1,0,0,1,436.674,274.399)"><path fill="#5d68f9" d="M351.656,0.717C351.656,0.717,351.656,0.717,351.656,0.717C351.656,-59.706,306.849,-110.173,248.822,-119.097C248.435,-119.157,248.046,-119.206,247.657,-119.262C247.657,-119.262,-269.669,-101.465,-269.669,-101.465C-311.898,-101.465,-346.448,-66.915,-346.448,-24.686C-346.448,-24.686,-346.448,-7.93,-346.448,-7.93C-346.448,34.298,-311.898,68.849,-269.669,68.849C-269.669,68.849,255.691,119.261,255.691,119.261C256.15,119.163,256.608,119.064,257.065,118.96C311.038,106.742,351.656,58.245,351.656,0.717Z" /></g></g></g></g><g transform="matrix(0.18,0,0,0.18,598.76,198.12)"><g transform="matrix(1,0,0,1,840.441,274.621)"><path fill="#3931ac" d="M15.24,10.458C15.24,10.458,-15.239,10.458,-15.239,10.458C-20.99,10.458,-25.697,5.752,-25.697,0C-25.697,-5.752,-20.99,-10.458,-15.239,-10.458C-15.239,-10.458,15.24,-10.458,15.24,-10.458C20.992,-10.458,25.698,-5.752,25.698,0C25.698,5.752,20.992,10.458,15.24,10.458Z" /></g></g></g></g></g><g><g transform="translate(684.757,242.431)"><animateTransform repeatCount="indefinite" type="translate" attributeName="transform" dur="2s" begin="0s" calcMode="spline" values="684.757 242.431; 684.757 217.431; 684.757 242.431; 684.757 262.431; 684.757 242.431; 684.757 242.431" keyTimes="0; 0.25; 0.5; 0.75; 0.99; 1" keySplines="0.167 0.167 0.667 1; 0.333 0 0.833 0.833; 0.167 0.167 0.667 1; 0.333 0 0.833 0.833; 0 0 1 1" fill="freeze" /><g transform="scale(1,1) translate(-684.757,-242.431)"><g transform="matrix(0.18,0,0,0.18,598.76,198.119)"><g transform="matrix(1,0,0,1,215.705,347.764)"><path fill="#474bd8" d="M89.162,-73.844C89.162,7.721,4.285,73.844,-42.439,73.844C-89.162,73.844,-80.039,7.721,-80.039,-73.844C-80.039,-73.844,89.162,-73.844,89.162,-73.844Z" /></g></g></g></g></g><g><g transform="translate(684.757,242.431)"><animateTransform repeatCount="indefinite" type="translate" attributeName="transform" dur="2s" begin="0s" calcMode="spline" values="684.757 242.431; 684.757 217.431; 684.757 242.431; 684.757 262.431; 684.757 242.431; 684.757 242.431" keyTimes="0; 0.25; 0.5; 0.75; 0.99; 1" keySplines="0.167 0.167 0.667 1; 0.333 0 0.833 0.833; 0.167 0.167 0.667 1; 0.333 0 0.833 0.833; 0 0 1 1" fill="freeze" /><g transform="scale(1,1) translate(-684.757,-242.431)"><g transform="matrix(0.18,0,0,0.18,598.761,198.12)"><g transform="matrix(1,0,0,1,491.562,459.271)"><path d="M128.899,-156.363C128.899,16.351,6.195,156.363,-61.352,156.363C-128.899,156.363,-115.71,16.351,-115.71,-156.363C-115.71,-156.363,128.899,-156.363,128.899,-156.363Z" fill="#474bd8"><animate repeatCount="indefinite" attributeName="d" dur="2s" begin="0s" calcMode="spline" values="M128.899,-156.363C128.899,16.351,6.195,156.363,-61.352,156.363C-128.899,156.363,-115.71,16.351,-115.71,-156.363C-115.71,-156.363,128.899,-156.363,128.899,-156.363Z; M128.899,-156.363C128.899,16.351,11.751,86.919,-55.796,86.919C-123.343,86.919,-115.71,16.351,-115.71,-156.363C-115.71,-156.363,128.899,-156.363,128.899,-156.363Z; M128.899,-156.363C128.899,16.351,6.195,156.363,-61.352,156.363C-128.899,156.363,-115.71,16.351,-115.71,-156.363C-115.71,-156.363,128.899,-156.363,128.899,-156.363Z; M128.899,-156.363C128.899,16.351,6.195,156.363,-61.352,156.363C-128.899,156.363,-115.71,16.351,-115.71,-156.363C-115.71,-156.363,128.899,-156.363,128.899,-156.363Z; M128.899,-156.363C128.899,16.351,6.195,156.363,-61.352,156.363C-128.899,156.363,-115.71,16.351,-115.71,-156.363C-115.71,-156.363,128.899,-156.363,128.899,-156.363Z" keyTimes="0; 0.25; 0.5; 0.99; 1" keySplines="0 0 1 1; 0 0 1 1; 0 0 1 1; 0 0 1 1" fill="freeze" /></path></g></g></g></g></g><g><g transform="translate(684.757,242.431)"><animateTransform repeatCount="indefinite" type="translate" attributeName="transform" dur="2s" begin="0s" calcMode="spline" values="684.757 242.431; 684.757 217.431; 684.757 242.431; 684.757 262.431; 684.757 242.431; 684.757 242.431" keyTimes="0; 0.25; 0.5; 0.75; 0.99; 1" keySplines="0.167 0.167 0.667 1; 0.333 0 0.833 0.833; 0.167 0.167 0.667 1; 0.333 0 0.833 0.833; 0 0 1 1" fill="freeze" /><g transform="scale(1,1) translate(-684.757,-242.431)"><g><g transform="translate(755.168,247.552)"><g transform="scale(1,1)"><animateTransform repeatCount="indefinite" type="scale" attributeName="transform" dur="2s" begin="0s" calcMode="spline" values="1 1; 1 0.12; 1 1; 1 0.12; 1 1; 1 0.12; 1 1; 1 0.12; 1 1; 1 0.12; 1 1; 1 0.12; 1 1; 1 0.12; 1 1; 1 0.12; 1 1; 1 0.12; 1 1; 1 0.12; 1 1; 1 0.12; 1 1; 1 0.12; 1 1; 1 0.12; 1 1; 1 0.12; 1 1; 1 0.12; 1 1; 1 0.12; 1 1; 1 0.12; 1 0.12" keyTimes="0; 0.03; 0.06; 0.09; 0.12; 0.15; 0.18; 0.21; 0.24; 0.27; 0.3; 0.33; 0.36; 0.39; 0.42; 0.45; 0.48; 0.51; 0.54; 0.57; 0.6; 0.63; 0.66; 0.69; 0.72; 0.75; 0.78; 0.81; 0.84; 0.87; 0.9; 0.93; 0.96; 0.99; 1" keySplines="0.333 0 0.667 1; 0.333 0 0.667 1; 0.333 0 0.667 1; 0.333 0 0.667 1; 0.333 0 0.667 1; 0.333 0 0.667 1; 0.333 0 0.667 1; 0.333 0 0.667 1; 0.333 0 0.667 1; 0.333 0 0.667 1; 0.333 0 0.667 1; 0.333 0 0.667 1; 0.333 0 0.667 1; 0.333 0 0.667 1; 0.333 0 0.667 1; 0.333 0 0.667 1; 0.333 0 0.667 1; 0.333 0 0.667 1; 0.333 0 0.667 1; 0.333 0 0.667 1; 0.333 0 0.667 1; 0.333 0 0.667 1; 0.333 0 0.667 1; 0.333 0 0.667 1; 0.333 0 0.667 1; 0.333 0 0.667 1; 0.333 0 0.667 1; 0.333 0 0.667 1; 0.333 0 0.667 1; 0.333 0 0.667 1; 0.333 0 0.667 1; 0.333 0 0.667 1; 0.333 0 0.667 1; 0 0 1 1" fill="freeze" /><g transform="translate(-755.168,-247.552)"><g transform="matrix(0.18,0,0,0.18,598.76,198.12)"><g transform="matrix(1,0,0,1,868.936,203.976)"><path fill="#5d68f9" d="M28.838,0C28.838,-39.968,15.927,-72.368,0,-72.368C-15.926,-72.368,-28.838,-39.968,-28.838,0C-28.838,39.967,-15.926,72.368,0,72.368C15.927,72.368,28.838,39.967,28.838,0Z" /></g></g><g transform="matrix(0.18,0,0,0.18,598.76,198.12)"><g transform="matrix(1,0,0,1,868.936,345.265)"><path fill="#5d68f9" d="M28.838,0C28.838,-39.967,15.927,-72.368,0,-72.368C-15.926,-72.368,-28.838,-39.967,-28.838,0C-28.838,39.968,-15.926,72.368,0,72.368C15.927,72.368,28.838,39.968,28.838,0Z" /></g></g></g></g></g></g></g></g></g><g opacity="0"><animate repeatCount="indefinite" attributeName="opacity" dur="2s" begin="0s" fill="freeze" values="0; 0.6; 0.6; 0; 0; 0.6; 0.6; 0; 0" keyTimes="0; 0.04; 0.18; 0.27; 0.64; 0.68; 0.82; 0.91; 1" keySplines="0.333 0 0.667 1; 0.333 0 0.667 1; 0.333 0 0.667 1; 0.333 0 0.667 1; 0.333 0 0.667 1; 0.333 0 0.667 1; 0.333 0 0.667 1; 0 0 1 1" calcMode="spline" /><g transform="translate(764.814,288.834)"><animateTransform repeatCount="indefinite" type="translate" attributeName="transform" dur="2s" begin="0s" calcMode="spline" values="764.814 288.834; 575.814 288.834; 764.814 288.834; 575.814 288.834; 575.814 288.834" keyTimes="0; 0.27; 0.64; 0.91; 1" keySplines="0.333 0 0.667 1; 0.333 0 0.667 1; 0.333 0 0.667 1; 0 0 1 1" fill="freeze" /><g transform="scale(0.3,0.3) translate(-494.744,-359.522)"><g transform="matrix(1,0,0,1,494.744,359.522)"><path fill="#d0d2d3" d="M75.133,16.175C74.352,16.175,73.59,16.255,72.85,16.396C72.85,16.321,72.856,16.248,72.856,16.175C72.856,2.69,61.924,-8.242,48.439,-8.242C46.661,-8.242,44.931,-8.047,43.261,-7.686C39.667,-26.428,23.195,-40.592,3.406,-40.592C-16.625,-40.592,-33.255,-26.078,-36.572,-6.996C-38.993,-7.8,-41.578,-8.242,-44.269,-8.242C-57.754,-8.242,-68.685,2.69,-68.685,16.175C-68.685,16.817,-68.653,17.449,-68.604,18.079C-70.494,16.879,-72.729,16.175,-75.133,16.175C-81.875,16.175,-87.341,21.64,-87.341,28.383C-87.341,35.125,-81.875,40.591,-75.133,40.591C-75.133,40.591,75.133,40.591,75.133,40.591C81.875,40.591,87.341,35.125,87.341,28.383C87.341,21.64,81.875,16.175,75.133,16.175Z" /></g></g></g></g></g></g></svg>