<svg width="13" height="16" viewBox="0 0 13 16" fill="none" xmlns="http://www.w3.org/2000/svg">
<g clip-path="url(#clip0_690_384)">
<path d="M10.0976 5.20947V6.90247L7.67884 8.34986V11.2738L6.26534 12.1228L4.85603 11.2751V8.33804L2.4375 6.89328V5.20973L3.82973 4.36914L6.26691 5.82415L8.70252 4.36914L10.0976 5.20947Z" fill="#F1B90A"/>
<path d="M3.81943 13.551L0 11.2601V6.68359L1.39801 7.5121V10.4234L3.81943 11.8724V13.551Z" fill="#F1B90A"/>
<path d="M8.70801 13.5535V11.8753L11.13 10.4263V7.51548L12.5248 6.6875V11.2656L8.70801 13.5535Z" fill="#F1B90A"/>
<path d="M6.26627 1.68039L3.83119 3.1354L2.43555 2.29481L6.2647 0L10.0952 2.29612L8.69978 3.13671L6.26627 1.68039Z" fill="#F1B90A"/>
<path d="M7.6695 14.1883L6.2665 15.0328L4.86035 14.1875V12.5098L6.26492 13.3538L7.66845 12.5132L7.6695 14.1883Z" fill="#F1B90A"/>
<path d="M11.132 6.28077V4.59723L9.72949 3.75112L11.1249 2.91211L12.5281 3.75638V5.45332L11.132 6.28077Z" fill="#F1B90A"/>
<path d="M1.40942 2.91211L2.80296 3.75112L1.3997 4.59933V6.27841L0.00195312 5.45227V3.75927L1.40942 2.91211Z" fill="#F1B90A"/>
<path d="M4.87109 3.75139L6.26542 2.91211L7.65975 3.75086L6.26595 4.59145L4.87109 3.75139Z" fill="#F1B90A"/>
<path d="M3.81017 8.9626V10.6406L2.43555 9.81448V8.13672L3.81017 8.9626Z" fill="#F1B90A"/>
<path d="M10.0976 8.13477V9.81122L8.72559 10.6379V8.96065L10.0976 8.13477Z" fill="#F1B90A"/>
</g>
<defs>
<clipPath id="clip0_690_384">
<rect width="12.5272" height="15.0337" fill="white"/>
</clipPath>
</defs>
</svg>
