<svg width="15" height="15" viewBox="0 0 15 15" fill="none" xmlns="http://www.w3.org/2000/svg">
<path d="M4.69548 12.9163C5.01971 12.9163 5.28256 12.6535 5.28256 12.3293C5.28256 12.005 5.01971 11.7422 4.69548 11.7422C4.37124 11.7422 4.1084 12.005 4.1084 12.3293C4.1084 12.6535 4.37124 12.9163 4.69548 12.9163Z" stroke="white" stroke-width="1.17416" stroke-linecap="round" stroke-linejoin="round"/>
<path d="M11.1535 12.9163C11.4777 12.9163 11.7406 12.6535 11.7406 12.3293C11.7406 12.005 11.4777 11.7422 11.1535 11.7422C10.8293 11.7422 10.5664 12.005 10.5664 12.3293C10.5664 12.6535 10.8293 12.9163 11.1535 12.9163Z" stroke="white" stroke-width="1.17416" stroke-linecap="round" stroke-linejoin="round"/>
<path d="M1.20312 1.20312H2.37728L3.93892 8.49465C3.9962 8.76169 4.14479 9.00041 4.3591 9.16971C4.5734 9.33902 4.84003 9.42831 5.11308 9.42224H10.8547C11.1219 9.42181 11.381 9.33024 11.5892 9.16265C11.7973 8.99507 11.9421 8.7615 11.9995 8.50052L12.9682 4.13852" stroke="white" stroke-width="1.17416" stroke-linecap="round" stroke-linejoin="round"/>
<path d="M5.94727 5.32422L8.03336 7.41031L10.1195 5.32422" stroke="white" stroke-width="1.04305" stroke-linecap="round" stroke-linejoin="round"/>
<path d="M8.03418 2.31445L8.03418 6.24797" stroke="white" stroke-width="0.826926" stroke-linecap="round" stroke-linejoin="round"/>
</svg>
