<svg width="248" height="237" viewBox="0 0 248 237" fill="none" xmlns="http://www.w3.org/2000/svg">
<g clip-path="url(#clip0_260_453)">
<path d="M111.968 99.9016C111.539 99.2278 111.108 98.5494 110.676 97.8665C109.848 96.5587 109.017 95.2552 108.199 93.9397C108.047 93.6955 107.974 93.6691 107.811 93.9303C106.646 95.7955 105.469 97.6463 104.296 99.5013C104.21 99.637 104.123 99.771 104.033 99.9102C103.929 99.777 103.971 99.6421 103.971 99.5252C103.968 97.4499 103.971 95.3747 103.965 93.2994C103.963 93.1807 103.978 93.0627 104.009 92.9521C104.041 92.8415 104.088 92.7405 104.148 92.6549C105.373 90.7296 106.593 88.7986 107.808 86.862C107.964 86.6135 108.034 86.6059 108.193 86.862C109.413 88.8123 110.639 90.7544 111.873 92.6882C111.97 92.8419 112.039 92.987 112.038 93.2106C112.031 95.3576 112.038 97.5037 112.033 99.6498C112.033 99.7215 112.061 99.8154 111.968 99.9016Z" fill="#6E6E6E"/>
<path d="M112.025 108.867C111.263 107.662 110.557 106.549 109.852 105.434C109.303 104.565 108.746 103.704 108.208 102.821C108.048 102.56 107.966 102.551 107.798 102.821C106.599 104.741 105.387 106.647 104.179 108.556C104.131 108.63 104.08 108.699 104.034 108.766C103.928 108.703 103.972 108.587 103.972 108.501C103.972 106.68 103.972 104.86 103.967 103.037C103.958 102.825 104.01 102.617 104.112 102.457C105.345 100.522 106.574 98.5798 107.797 96.6306C107.959 96.3745 108.04 96.36 108.207 96.6306C109.413 98.5607 110.631 100.478 111.848 102.396C111.959 102.572 112.04 102.738 112.039 102.994C112.031 104.857 112.035 106.721 112.034 108.584C112.034 108.635 112.031 108.687 112.025 108.867Z" fill="#6E6E6E"/>
<path d="M103.97 117.646L103.97 116.971C103.97 115.578 103.97 114.185 103.97 112.788C103.966 112.683 103.977 112.579 104.002 112.48C104.027 112.381 104.066 112.29 104.117 112.212C105.363 110.256 106.603 108.292 107.839 106.322C107.992 106.078 108.055 106.14 108.181 106.341C109.411 108.297 110.644 110.25 111.882 112.197C111.971 112.338 112.041 112.471 112.04 112.681C112.033 114.287 112.04 115.893 112.036 117.499C112.029 117.566 112.02 117.631 112.007 117.696C111.883 117.507 111.781 117.36 111.685 117.208C110.526 115.374 109.362 113.547 108.214 111.699C108.027 111.402 107.954 111.451 107.788 111.717C106.607 113.604 105.419 115.473 104.23 117.351C104.166 117.456 104.119 117.596 103.97 117.646Z" fill="#6E6E6E"/>
<path d="M111.968 126.533L110.284 123.874C109.577 122.759 108.867 121.649 108.17 120.523C108.025 120.289 107.961 120.319 107.828 120.533C106.639 122.429 105.446 124.317 104.248 126.199C104.177 126.31 104.128 126.461 103.97 126.52L103.97 124.984C103.97 124.173 103.975 123.362 103.967 122.552C103.964 122.441 103.976 122.329 104.005 122.225C104.033 122.12 104.076 122.024 104.132 121.943C105.365 120.008 106.592 118.066 107.814 116.118C107.952 115.898 108.017 115.843 108.178 116.099C109.411 118.071 110.657 120.026 111.899 121.989C111.966 122.095 112.035 122.191 112.035 122.355C112.032 123.73 112.035 125.106 112.035 126.481L111.968 126.533Z" fill="#6E6E6E"/>
<path d="M103.969 135.488C103.969 134.278 103.969 133.189 103.969 132.099C103.969 131.917 104.061 131.821 104.133 131.706C105.367 129.753 106.605 127.805 107.833 125.845C107.978 125.612 108.047 125.641 108.179 125.851C109.422 127.832 110.669 129.808 111.919 131.778C111.971 131.864 112.037 131.933 112.037 132.065C112.037 133.168 112.037 134.27 112.037 135.505C111.899 135.294 111.82 135.176 111.743 135.055C110.562 133.188 109.381 131.326 108.208 129.449C108.04 129.178 107.959 129.193 107.799 129.449C106.613 131.346 105.416 133.23 104.222 135.117C104.159 135.216 104.094 135.306 103.969 135.488Z" fill="#5D5D5D"/>
<path d="M111.969 144.28L109.45 140.294C109.029 139.629 108.598 138.975 108.194 138.292C108.03 138.015 107.953 138.076 107.807 138.309C106.613 140.216 105.413 142.115 104.208 144.008C104.151 144.099 104.113 144.228 103.974 144.264C103.974 143.436 103.974 142.62 103.974 141.804C103.974 141.649 104.066 141.555 104.133 141.449C105.361 139.506 106.588 137.564 107.814 135.621C107.949 135.405 108.026 135.365 108.18 135.606C109.414 137.577 110.653 139.542 111.899 141.5C111.967 141.608 112.036 141.706 112.035 141.868C112.032 142.659 112.035 143.451 112.035 144.243L111.969 144.28Z" fill="#5D5D5D"/>
<path d="M103.972 152.287C103.972 151.651 103.972 151.132 103.972 150.613C103.972 150.466 104.048 150.385 104.108 150.291C105.355 148.316 106.602 146.341 107.849 144.367C107.963 144.185 108.026 144.154 108.151 144.354C109.401 146.346 110.655 148.332 111.913 150.31C111.953 150.365 111.984 150.43 112.006 150.502C112.027 150.573 112.038 150.65 112.037 150.727C112.031 151.205 112.037 151.682 112.037 152.284C111.881 152.047 111.78 151.898 111.683 151.745C110.523 149.911 109.36 148.081 108.208 146.237C108.044 145.973 107.967 145.97 107.802 146.237C106.637 148.101 105.46 149.953 104.286 151.808C104.199 151.94 104.112 152.074 103.972 152.287Z" fill="#5D5D5D"/>
</g>
<g clip-path="url(#clip1_260_453)">
<path d="M128.076 99.9019C127.648 99.228 127.217 98.5497 126.785 97.8667C125.957 96.5589 125.126 95.2554 124.308 93.9399C124.156 93.6958 124.083 93.6693 123.92 93.9305C122.755 95.7958 121.578 97.6465 120.405 99.5015C120.319 99.6372 120.232 99.7713 120.142 99.9104C120.038 99.7772 120.08 99.6424 120.08 99.5254C120.077 97.4502 120.08 95.3749 120.074 93.2997C120.072 93.181 120.087 93.063 120.118 92.9524C120.15 92.8417 120.197 92.7407 120.256 92.6551C121.482 90.7299 122.702 88.7989 123.917 86.8622C124.073 86.6138 124.143 86.6061 124.302 86.8622C125.522 88.8125 126.748 90.7546 127.982 92.6884C128.079 92.8421 128.148 92.9872 128.147 93.2109C128.14 95.3578 128.147 97.5039 128.142 99.65C128.142 99.7217 128.17 99.8156 128.076 99.9019Z" fill="#6E6E6E"/>
<path d="M128.134 108.867C127.372 107.662 126.666 106.549 125.961 105.434C125.412 104.565 124.855 103.704 124.317 102.821C124.157 102.56 124.075 102.551 123.907 102.821C122.707 104.741 121.496 106.647 120.288 108.556C120.24 108.63 120.189 108.699 120.143 108.766C120.037 108.703 120.081 108.587 120.081 108.501C120.081 106.68 120.081 104.86 120.076 103.037C120.067 102.825 120.119 102.617 120.221 102.457C121.454 100.522 122.683 98.5798 123.906 96.6306C124.068 96.3745 124.148 96.36 124.316 96.6306C125.522 98.5607 126.74 100.478 127.957 102.396C128.068 102.572 128.149 102.738 128.148 102.994C128.14 104.857 128.144 106.721 128.143 108.584C128.143 108.635 128.14 108.687 128.134 108.867Z" fill="#6E6E6E"/>
<path d="M120.079 117.646L120.079 116.971C120.079 115.578 120.079 114.185 120.079 112.788C120.075 112.683 120.086 112.579 120.111 112.48C120.136 112.381 120.175 112.29 120.226 112.212C121.472 110.256 122.712 108.292 123.948 106.322C124.101 106.078 124.164 106.14 124.29 106.341C125.52 108.297 126.753 110.25 127.991 112.197C128.08 112.338 128.15 112.471 128.149 112.681C128.142 114.287 128.149 115.893 128.145 117.499C128.139 117.566 128.129 117.631 128.116 117.696C127.992 117.507 127.89 117.36 127.794 117.208C126.635 115.374 125.471 113.547 124.323 111.699C124.136 111.402 124.063 111.451 123.897 111.717C122.716 113.604 121.528 115.473 120.339 117.351C120.275 117.456 120.228 117.596 120.079 117.646Z" fill="#6E6E6E"/>
<path d="M128.077 126.533L126.393 123.874C125.686 122.759 124.976 121.649 124.279 120.523C124.134 120.289 124.07 120.319 123.937 120.533C122.748 122.429 121.555 124.317 120.357 126.199C120.286 126.31 120.237 126.461 120.079 126.52L120.079 124.984C120.079 124.173 120.084 123.362 120.076 122.552C120.073 122.441 120.085 122.329 120.114 122.225C120.142 122.12 120.185 122.024 120.241 121.943C121.474 120.008 122.701 118.066 123.923 116.118C124.061 115.898 124.126 115.843 124.287 116.099C125.52 118.071 126.766 120.026 128.008 121.989C128.075 122.095 128.144 122.191 128.144 122.355C128.141 123.73 128.144 125.106 128.144 126.481L128.077 126.533Z" fill="#6E6E6E"/>
<path d="M120.078 135.488C120.078 134.278 120.078 133.189 120.078 132.099C120.078 131.917 120.17 131.821 120.242 131.706C121.476 129.753 122.714 127.805 123.941 125.845C124.087 125.612 124.156 125.641 124.288 125.851C125.531 127.832 126.778 129.808 128.027 131.778C128.08 131.864 128.146 131.933 128.146 132.065C128.146 133.168 128.146 134.27 128.146 135.505C128.008 135.294 127.929 135.176 127.852 135.055C126.671 133.188 125.49 131.326 124.317 129.449C124.148 129.178 124.068 129.193 123.908 129.449C122.722 131.346 121.525 133.23 120.331 135.117C120.268 135.216 120.202 135.306 120.078 135.488Z" fill="#5D5D5D"/>
<path d="M128.078 144.28L125.559 140.294C125.138 139.629 124.707 138.975 124.303 138.292C124.139 138.015 124.062 138.076 123.916 138.309C122.722 140.216 121.522 142.115 120.317 144.008C120.26 144.099 120.222 144.228 120.082 144.264C120.082 143.436 120.082 142.62 120.082 141.804C120.082 141.649 120.175 141.555 120.242 141.449C121.469 139.506 122.697 137.564 123.923 135.621C124.058 135.405 124.135 135.365 124.289 135.606C125.523 137.577 126.762 139.542 128.008 141.5C128.076 141.608 128.145 141.706 128.144 141.868C128.141 142.659 128.144 143.451 128.144 144.243L128.078 144.28Z" fill="#5D5D5D"/>
<path d="M120.081 152.287C120.081 151.651 120.081 151.132 120.081 150.613C120.081 150.466 120.157 150.385 120.217 150.291C121.464 148.316 122.711 146.341 123.958 144.367C124.071 144.185 124.134 144.154 124.26 144.354C125.51 146.346 126.764 148.332 128.022 150.31C128.062 150.365 128.093 150.43 128.114 150.502C128.136 150.573 128.147 150.65 128.146 150.727C128.139 151.205 128.146 151.682 128.146 152.284C127.99 152.047 127.889 151.898 127.792 151.745C126.632 149.911 125.468 148.081 124.317 146.237C124.152 145.973 124.076 145.97 123.91 146.237C122.746 148.101 121.569 149.953 120.395 151.808C120.308 151.94 120.221 152.074 120.081 152.287Z" fill="#5D5D5D"/>
</g>
<g clip-path="url(#clip2_260_453)">
<path d="M144.185 99.9019C143.756 99.228 143.326 98.5497 142.893 97.8667C142.066 96.5589 141.234 95.2554 140.416 93.9399C140.265 93.6958 140.192 93.6693 140.029 93.9305C138.864 95.7958 137.687 97.6465 136.514 99.5015C136.428 99.6372 136.341 99.7713 136.251 99.9104C136.147 99.7772 136.189 99.6424 136.189 99.5254C136.186 97.4502 136.189 95.3749 136.182 93.2997C136.18 93.181 136.196 93.063 136.227 92.9524C136.258 92.8417 136.305 92.7407 136.365 92.6551C137.591 90.7299 138.811 88.7989 140.026 86.8622C140.182 86.6138 140.252 86.6061 140.411 86.8622C141.63 88.8125 142.857 90.7546 144.091 92.6884C144.188 92.8421 144.257 92.9872 144.255 93.2109C144.249 95.3578 144.255 97.5039 144.25 99.65C144.251 99.7217 144.278 99.8156 144.185 99.9019Z" fill="#6E6E6E"/>
<path d="M144.242 108.867C143.48 107.662 142.775 106.549 142.07 105.434C141.52 104.565 140.964 103.704 140.426 102.821C140.266 102.56 140.184 102.551 140.016 102.821C138.816 104.741 137.605 106.647 136.396 108.556C136.349 108.63 136.298 108.699 136.251 108.766C136.146 108.703 136.189 108.587 136.189 108.501C136.189 106.68 136.189 104.86 136.185 103.037C136.176 102.825 136.228 102.617 136.33 102.457C137.563 100.522 138.791 98.5798 140.015 96.6306C140.176 96.3745 140.257 96.36 140.424 96.6306C141.631 98.5607 142.849 100.478 144.066 102.396C144.177 102.572 144.258 102.738 144.257 102.994C144.249 104.857 144.252 106.721 144.252 108.584C144.252 108.635 144.249 108.687 144.242 108.867Z" fill="#6E6E6E"/>
<path d="M136.188 117.646L136.188 116.971C136.188 115.578 136.188 114.185 136.188 112.788C136.184 112.683 136.194 112.579 136.22 112.48C136.245 112.381 136.284 112.29 136.335 112.212C137.581 110.256 138.821 108.292 140.056 106.322C140.209 106.078 140.273 106.14 140.399 106.341C141.629 108.297 142.862 110.25 144.099 112.197C144.189 112.338 144.259 112.471 144.257 112.681C144.251 114.287 144.257 115.893 144.254 117.499C144.247 117.566 144.238 117.631 144.225 117.696C144.101 117.507 143.999 117.36 143.903 117.208C142.744 115.374 141.579 113.547 140.431 111.699C140.245 111.402 140.172 111.451 140.005 111.717C138.824 113.604 137.637 115.473 136.448 117.351C136.384 117.456 136.337 117.596 136.188 117.646Z" fill="#6E6E6E"/>
<path d="M144.185 126.533L142.501 123.874C141.795 122.759 141.085 121.649 140.388 120.523C140.243 120.289 140.179 120.319 140.045 120.533C138.857 122.429 137.664 124.317 136.466 126.199C136.395 126.31 136.346 126.461 136.188 126.52L136.188 124.984C136.188 124.173 136.193 123.362 136.185 122.552C136.181 122.441 136.194 122.329 136.222 122.225C136.251 122.12 136.294 122.024 136.35 121.943C137.583 120.008 138.81 118.066 140.032 116.118C140.17 115.898 140.235 115.843 140.395 116.099C141.629 118.071 142.875 120.026 144.117 121.989C144.184 122.095 144.253 122.191 144.253 122.355C144.249 123.73 144.253 125.106 144.253 126.481L144.185 126.533Z" fill="#6E6E6E"/>
<path d="M136.187 135.488C136.187 134.278 136.187 133.189 136.187 132.099C136.187 131.917 136.278 131.821 136.351 131.706C137.584 129.753 138.823 127.805 140.05 125.845C140.196 125.612 140.265 125.641 140.397 125.851C141.64 127.832 142.886 129.808 144.136 131.778C144.189 131.864 144.254 131.933 144.254 132.065C144.254 133.168 144.254 134.27 144.254 135.505C144.117 135.294 144.037 135.176 143.961 135.055C142.78 133.188 141.599 131.326 140.426 129.449C140.257 129.178 140.177 129.193 140.017 129.449C138.831 131.346 137.633 133.23 136.439 135.117C136.376 135.216 136.311 135.306 136.187 135.488Z" fill="#5D5D5D"/>
<path d="M144.187 144.28L141.668 140.294C141.247 139.629 140.816 138.975 140.411 138.292C140.248 138.015 140.171 138.076 140.025 138.309C138.831 140.216 137.631 142.115 136.426 144.008C136.368 144.099 136.33 144.228 136.191 144.264C136.191 143.436 136.191 142.62 136.191 141.804C136.191 141.649 136.284 141.555 136.35 141.449C137.578 139.506 138.805 137.564 140.032 135.621C140.167 135.405 140.244 135.365 140.398 135.606C141.631 137.577 142.871 139.542 144.117 141.5C144.185 141.608 144.254 141.706 144.253 141.868C144.25 142.659 144.253 143.451 144.253 144.243L144.187 144.28Z" fill="#5D5D5D"/>
<path d="M136.19 152.287C136.19 151.651 136.19 151.132 136.19 150.613C136.19 150.466 136.266 150.385 136.326 150.291C137.573 148.316 138.82 146.341 140.067 144.367C140.18 144.185 140.243 144.154 140.369 144.354C141.619 146.346 142.873 148.332 144.131 150.31C144.17 150.365 144.202 150.43 144.223 150.502C144.245 150.573 144.255 150.65 144.255 150.727C144.248 151.205 144.255 151.682 144.255 152.284C144.099 152.047 143.998 151.898 143.901 151.745C142.741 149.911 141.577 148.081 140.426 146.237C140.261 145.973 140.185 145.97 140.019 146.237C138.854 148.101 137.678 149.953 136.504 151.808C136.417 151.94 136.33 152.074 136.19 152.287Z" fill="#5D5D5D"/>
</g>
<path d="M124.11 78.6358C145.825 78.6358 163.428 61.0326 163.428 39.3179C163.428 17.6032 145.825 0 124.11 0C102.395 0 84.7921 17.6032 84.7921 39.3179C84.7921 61.0326 102.395 78.6358 124.11 78.6358Z" fill="#5F259F"/>
<path d="M141.955 29.057C141.955 27.52 140.637 26.2019 139.1 26.2019H133.829L121.748 12.3643C120.65 11.0462 118.893 10.6072 117.136 11.0462L112.963 12.3643C112.304 12.5843 112.084 13.4623 112.524 13.9013L125.702 26.4219H105.712C105.053 26.4219 104.614 26.8609 104.614 27.52V29.716C104.614 31.253 105.932 32.5711 107.469 32.5711H110.544V43.1146C110.544 51.022 114.718 55.6353 121.747 55.6353C123.943 55.6353 125.701 55.4152 127.897 54.5373V61.5667C127.897 63.5438 129.434 65.0808 131.411 65.0808H134.487C135.146 65.0808 135.805 64.4218 135.805 63.7627V32.3522H140.857C141.516 32.3522 141.955 31.9132 141.955 31.2542V29.057ZM127.897 47.9468C126.579 48.6059 124.822 48.826 123.504 48.826C119.99 48.826 118.233 47.0689 118.233 43.1146V32.5711H127.897V47.9468Z" fill="white"/>
<g clip-path="url(#clip3_260_453)">
<path d="M36.6368 173.554C36.0481 173.015 35.4566 172.471 34.8624 171.923C33.7247 170.874 32.5839 169.83 31.4533 168.771C31.2436 168.575 31.1665 168.568 31.0768 168.862C30.4343 170.965 29.7761 173.058 29.1232 175.153C29.0754 175.307 29.026 175.459 28.975 175.616C28.8403 175.515 28.8456 175.373 28.8153 175.261C28.2752 173.257 27.7411 171.251 27.198 169.249C27.1654 169.134 27.1494 169.016 27.1511 168.902C27.1528 168.787 27.172 168.677 27.2077 168.579C27.893 166.402 28.5719 164.221 29.2444 162.036C29.3308 161.755 29.396 161.73 29.616 161.936C31.2989 163.504 32.9864 165.063 34.6786 166.611C34.812 166.735 34.9162 166.857 34.9729 167.073C35.522 169.149 36.084 171.22 36.6347 173.294C36.6538 173.363 36.7046 173.447 36.6368 173.554Z" fill="#6E6E6E"/>
<path d="M39.0124 182.2C37.9645 181.233 36.9949 180.341 36.0254 179.446C35.2697 178.749 34.5094 178.061 33.7609 177.348C33.539 177.137 33.4573 177.149 33.3653 177.454C32.7033 179.619 32.0262 181.773 31.3532 183.93C31.3266 184.013 31.2952 184.093 31.2676 184.17C31.1492 184.137 31.1612 184.013 31.1389 183.93C30.6676 182.171 30.1966 180.413 29.7206 178.654C29.6568 178.451 29.6531 178.237 29.7103 178.056C30.4008 175.868 31.0846 173.674 31.7618 171.474C31.8516 171.185 31.9259 171.15 32.1575 171.368C33.8225 172.92 35.495 174.457 37.1671 175.995C37.3201 176.136 37.441 176.275 37.5061 176.523C37.9806 178.325 38.4665 180.124 38.948 181.923C38.9613 181.973 38.9717 182.024 39.0124 182.2Z" fill="#6E6E6E"/>
<path d="M33.5046 192.764L33.3298 192.112C32.9693 190.766 32.6089 189.421 32.2472 188.071C32.216 187.971 32.1992 187.868 32.198 187.766C32.1967 187.664 32.211 187.566 32.24 187.477C32.9369 185.265 33.627 183.048 34.3103 180.825C34.3949 180.549 34.4722 180.593 34.646 180.754C36.3401 182.326 38.0368 183.892 39.7361 185.453C39.859 185.566 39.9608 185.676 40.0139 185.88C40.4229 187.432 40.8451 188.982 41.2573 190.535C41.2684 190.6 41.2762 190.667 41.2807 190.732C41.1116 190.582 40.9751 190.466 40.8433 190.344C39.2489 188.873 37.6513 187.409 36.0641 185.922C35.8071 185.683 35.7494 185.749 35.6575 186.049C35.0049 188.177 34.3419 190.29 33.6794 192.412C33.6447 192.53 33.6351 192.677 33.5046 192.764Z" fill="#6E6E6E"/>
<path d="M43.5294 199.278L41.2146 197.145C40.2439 196.251 39.2704 195.363 38.3059 194.456C38.1054 194.268 38.0513 194.313 37.9777 194.555C37.3205 196.693 36.6569 198.826 35.9868 200.954C35.947 201.079 35.9387 201.238 35.8014 201.336L35.4037 199.851C35.1941 199.069 34.9887 198.283 34.7715 197.504C34.7391 197.397 34.7225 197.286 34.7227 197.178C34.723 197.069 34.74 196.965 34.7728 196.872C35.4629 194.684 36.1459 192.491 36.8218 190.293C36.898 190.045 36.9467 189.974 37.1679 190.18C38.8702 191.766 40.5794 193.332 42.2873 194.907C42.3795 194.991 42.4711 195.067 42.5136 195.225C42.8659 196.554 43.2254 197.882 43.5814 199.21L43.5294 199.278Z" fill="#6E6E6E"/>
<path d="M38.1214 209.998C37.8081 208.829 37.5262 207.777 37.2443 206.725C37.197 206.548 37.2605 206.432 37.3009 206.302C37.9867 204.097 38.6788 201.895 39.3571 199.683C39.4376 199.421 39.5117 199.432 39.6934 199.6C41.4068 201.192 43.1222 202.777 44.8396 204.357C44.9127 204.426 44.9937 204.476 45.0279 204.604C45.3134 205.669 45.5986 206.734 45.9181 207.926C45.7308 207.758 45.6235 207.665 45.5183 207.568C43.8942 206.07 42.2715 204.577 40.6526 203.068C40.4199 202.85 40.3462 202.885 40.2575 203.173C39.6031 205.313 38.934 207.442 38.2691 209.574C38.2341 209.686 38.1942 209.79 38.1214 209.998Z" fill="#5D5D5D"/>
<path d="M48.1243 216.42L44.6592 213.222C44.0806 212.688 43.4952 212.168 42.9276 211.613C42.6981 211.388 42.6393 211.467 42.5585 211.73C41.8987 213.88 41.2315 216.026 40.557 218.166C40.5252 218.268 40.5221 218.404 40.3969 218.474C40.1826 217.674 39.9714 216.886 39.7601 216.098C39.7202 215.949 39.7851 215.833 39.8219 215.714C40.5053 213.52 41.1878 211.326 41.8694 209.131C41.9444 208.888 42.0084 208.829 42.219 209.022C43.9211 210.607 45.6271 212.184 47.3371 213.753C47.4304 213.839 47.5224 213.916 47.5638 214.073C47.7656 214.838 47.9734 215.602 48.1785 216.367L48.1243 216.42Z" fill="#5D5D5D"/>
<path d="M42.4717 226.224C42.3071 225.61 42.1727 225.108 42.0386 224.608C42.0004 224.465 42.0533 224.367 42.0866 224.261C42.78 222.031 43.4734 219.801 44.1669 217.571C44.2297 217.366 44.2822 217.319 44.4554 217.481C46.1786 219.081 47.9038 220.674 49.6308 222.26C49.6833 222.303 49.7305 222.357 49.7696 222.421C49.8087 222.484 49.839 222.555 49.8587 222.63C49.9758 223.094 50.106 223.553 50.2617 224.134C50.0496 223.945 49.9133 223.828 49.7798 223.705C48.1848 222.234 46.5873 220.768 44.9979 219.284C44.7705 219.072 44.6959 219.089 44.6052 219.389C43.9625 221.492 43.3051 223.585 42.6516 225.68C42.6017 225.83 42.5524 225.982 42.4717 226.224Z" fill="#222222"/>
</g>
<g clip-path="url(#clip4_260_453)">
<path d="M52.1966 169.385C51.6079 168.845 51.0164 168.302 50.4222 167.754C49.2845 166.705 48.1437 165.661 47.0131 164.602C46.8034 164.405 46.7263 164.399 46.6366 164.693C45.9941 166.796 45.3359 168.889 44.683 170.984C44.6352 171.137 44.5859 171.289 44.5348 171.447C44.4001 171.345 44.4054 171.204 44.3751 171.091C43.835 169.088 43.3009 167.082 42.7578 165.079C42.7252 164.965 42.7092 164.847 42.7109 164.732C42.7126 164.617 42.7318 164.508 42.7675 164.409C43.4529 162.233 44.1318 160.052 44.8042 157.866C44.8906 157.586 44.9558 157.561 45.1758 157.767C46.8587 159.335 48.5462 160.893 50.2384 162.442C50.3718 162.565 50.476 162.688 50.5327 162.904C51.0818 164.98 51.6438 167.051 52.1945 169.125C52.2136 169.194 52.2644 169.278 52.1966 169.385Z" fill="#6E6E6E"/>
<path d="M54.5722 178.03C53.5243 177.064 52.5547 176.171 51.5852 175.277C50.8295 174.58 50.0692 173.892 49.3208 173.179C49.0988 172.968 49.0171 172.98 48.9251 173.285C48.2631 175.45 47.586 177.604 46.913 179.761C46.8864 179.844 46.855 179.924 46.8275 180.001C46.709 179.968 46.721 179.844 46.6987 179.761C46.2274 178.002 45.7564 176.244 45.2805 174.485C45.2167 174.282 45.2129 174.067 45.2701 173.887C45.9606 171.698 46.6444 169.505 47.3216 167.305C47.4114 167.016 47.4857 166.981 47.7173 167.199C49.3823 168.751 51.0548 170.288 52.7269 171.826C52.8799 171.967 53.0008 172.106 53.0659 172.354C53.5404 174.156 54.0263 175.955 54.5078 177.754C54.5211 177.804 54.5316 177.855 54.5722 178.03Z" fill="#6E6E6E"/>
<path d="M49.0644 188.595L48.8897 187.943C48.5291 186.597 48.1687 185.252 47.807 183.902C47.7758 183.803 47.759 183.699 47.7578 183.597C47.7565 183.495 47.7708 183.397 47.7998 183.309C48.4967 181.096 49.1868 178.879 49.8702 176.656C49.9547 176.38 50.032 176.424 50.2059 176.585C51.8999 178.157 53.5966 179.723 55.2959 181.284C55.4189 181.397 55.5206 181.508 55.5737 181.711C55.9827 183.264 56.4049 184.813 56.8171 186.366C56.8282 186.431 56.836 186.498 56.8405 186.563C56.6714 186.413 56.5349 186.297 56.4031 186.175C54.8087 184.704 53.2111 183.24 51.6239 181.753C51.3669 181.514 51.3093 181.58 51.2173 181.88C50.5647 184.008 49.9018 186.121 49.2392 188.243C49.2045 188.361 49.1949 188.508 49.0644 188.595Z" fill="#6E6E6E"/>
<path d="M59.0892 195.109L56.7744 192.976C55.8037 192.082 54.8302 191.194 53.8657 190.287C53.6652 190.098 53.6111 190.144 53.5375 190.385C52.8804 192.523 52.2167 194.656 51.5466 196.784C51.5068 196.91 51.4985 197.069 51.3612 197.166L50.9635 195.682C50.7539 194.9 50.5486 194.114 50.3313 193.335C50.2989 193.228 50.2823 193.117 50.2825 193.008C50.2828 192.9 50.2998 192.796 50.3327 192.703C51.0227 190.515 51.7057 188.322 52.3816 186.124C52.4579 185.876 52.5065 185.805 52.7277 186.011C54.43 187.596 56.1392 189.162 57.8471 190.737C57.9393 190.822 58.0309 190.898 58.0734 191.056C58.4257 192.385 58.7852 193.713 59.1412 195.041L59.0892 195.109Z" fill="#6E6E6E"/>
<path d="M53.6812 205.83C53.3679 204.66 53.086 203.608 52.8041 202.556C52.7568 202.38 52.8203 202.264 52.8607 202.133C53.5465 199.928 54.2386 197.726 54.917 195.514C54.9974 195.253 55.0715 195.263 55.2532 195.431C56.9666 197.023 58.6821 198.608 60.3994 200.189C60.4726 200.257 60.5535 200.307 60.5877 200.435C60.8732 201.5 61.1584 202.565 61.4779 203.757C61.2907 203.589 61.1833 203.496 61.0781 203.399C59.454 201.901 57.8313 200.408 56.2125 198.899C55.9797 198.681 55.906 198.716 55.8174 199.004C55.1629 201.144 54.4938 203.273 53.8289 205.406C53.7939 205.517 53.754 205.621 53.6812 205.83Z" fill="#5D5D5D"/>
<path d="M63.6841 212.25L60.219 209.052C59.6404 208.519 59.055 207.999 58.4874 207.444C58.2579 207.219 58.1991 207.298 58.1183 207.561C57.4585 209.711 56.7913 211.857 56.1168 213.997C56.085 214.099 56.0819 214.234 55.9567 214.305C55.7424 213.505 55.5312 212.717 55.32 211.929C55.28 211.779 55.3449 211.664 55.3818 211.544C56.0651 209.35 56.7476 207.156 57.4292 204.962C57.5042 204.719 57.5682 204.66 57.7789 204.853C59.4809 206.438 61.1869 208.015 62.8969 209.584C62.9902 209.67 63.0823 209.747 63.1236 209.904C63.3254 210.669 63.5333 211.433 63.7383 212.198L63.6841 212.25Z" fill="#5D5D5D"/>
<path d="M58.0315 222.055C57.8669 221.441 57.7326 220.939 57.5984 220.439C57.5602 220.296 57.6131 220.198 57.6464 220.092C58.3398 217.862 59.0332 215.632 59.7267 213.402C59.7896 213.197 59.842 213.15 60.0152 213.311C61.7385 214.912 63.4636 216.505 65.1906 218.091C65.2432 218.133 65.2903 218.188 65.3294 218.251C65.3686 218.315 65.3988 218.386 65.4185 218.461C65.5357 218.924 65.6658 219.384 65.8215 219.965C65.6094 219.776 65.4731 219.659 65.3396 219.536C63.7446 218.065 62.1471 216.599 60.5577 215.115C60.3303 214.903 60.2558 214.92 60.165 215.22C59.5223 217.322 58.8649 219.415 58.2114 221.511C58.1616 221.661 58.1122 221.813 58.0315 222.055Z" fill="#222222"/>
</g>
<g clip-path="url(#clip5_260_453)">
<path d="M67.7564 165.216C67.1677 164.677 66.5762 164.133 65.982 163.585C64.8443 162.536 63.7035 161.492 62.5729 160.433C62.3632 160.236 62.2861 160.23 62.1964 160.524C61.5539 162.627 60.8957 164.72 60.2428 166.815C60.1951 166.968 60.1457 167.12 60.0946 167.278C59.9599 167.176 59.9652 167.035 59.9349 166.922C59.3948 164.919 58.8607 162.913 58.3176 160.91C58.285 160.796 58.269 160.678 58.2707 160.563C58.2724 160.448 58.2916 160.339 58.3273 160.241C59.0127 158.064 59.6916 155.883 60.364 153.698C60.4504 153.417 60.5157 153.392 60.7357 153.598C62.4185 155.166 64.106 156.725 65.7982 158.273C65.9316 158.396 66.0358 158.519 66.0925 158.735C66.6416 160.811 67.2036 162.882 67.7543 164.956C67.7735 165.025 67.8242 165.109 67.7564 165.216Z" fill="#6E6E6E"/>
<path d="M70.132 173.861C69.0841 172.895 68.1145 172.002 67.145 171.108C66.3893 170.41 65.629 169.722 64.8806 169.009C64.6587 168.798 64.577 168.81 64.4849 169.115C63.8229 171.28 63.1458 173.434 62.4728 175.591C62.4462 175.675 62.4149 175.755 62.3873 175.832C62.2688 175.798 62.2808 175.675 62.2585 175.591C61.7872 173.833 61.3162 172.075 60.8403 170.315C60.7765 170.113 60.7728 169.898 60.8299 169.717C61.5204 167.529 62.2042 165.335 62.8814 163.136C62.9712 162.846 63.0455 162.812 63.2771 163.03C64.9421 164.582 66.6146 166.119 68.2867 167.656C68.4397 167.797 68.5606 167.936 68.6257 168.184C69.1002 169.986 69.5861 171.785 70.0676 173.585C70.0809 173.634 70.0914 173.685 70.132 173.861Z" fill="#6E6E6E"/>
<path d="M64.6242 184.425L64.4495 183.773C64.0889 182.428 63.7285 181.083 63.3669 179.733C63.3356 179.633 63.3188 179.529 63.3176 179.427C63.3164 179.325 63.3307 179.227 63.3596 179.139C64.0565 176.927 64.7466 174.709 65.43 172.486C65.5145 172.211 65.5919 172.255 65.7657 172.416C67.4597 173.987 69.1564 175.554 70.8558 177.115C70.9787 177.227 71.0804 177.338 71.1335 177.541C71.5425 179.094 71.9647 180.643 72.3769 182.196C72.388 182.262 72.3959 182.328 72.4004 182.394C72.2312 182.243 72.0948 182.128 71.963 182.006C70.3686 180.535 68.7709 179.071 67.1838 177.583C66.9267 177.345 66.8691 177.41 66.7771 177.711C66.1245 179.839 65.4616 181.952 64.799 184.074C64.7643 184.192 64.7547 184.338 64.6242 184.425Z" fill="#6E6E6E"/>
<path d="M74.649 190.939L72.3342 188.807C71.3635 187.913 70.39 187.025 69.4255 186.117C69.2251 185.929 69.1709 185.974 69.0973 186.216C68.4402 188.354 67.7765 190.487 67.1064 192.615C67.0667 192.741 67.0583 192.899 66.9211 192.997L66.5234 191.513C66.3137 190.73 66.1084 189.945 65.8911 189.165C65.8587 189.058 65.8421 188.947 65.8424 188.839C65.8426 188.73 65.8596 188.627 65.8925 188.534C66.5825 186.346 67.2655 184.153 67.9414 181.955C68.0177 181.706 68.0664 181.636 68.2876 181.842C69.9898 183.427 71.6991 184.993 73.4069 186.568C73.4991 186.653 73.5908 186.728 73.6332 186.886C73.9855 188.216 74.3451 189.543 74.701 190.872L74.649 190.939Z" fill="#6E6E6E"/>
<path d="M69.241 201.66C68.9277 200.491 68.6458 199.439 68.3639 198.387C68.3166 198.21 68.3801 198.094 68.4206 197.964C69.1063 195.758 69.7984 193.557 70.4768 191.345C70.5572 191.083 70.6313 191.093 70.813 191.262C72.5265 192.853 74.2419 194.439 75.9592 196.019C76.0324 196.088 76.1133 196.138 76.1476 196.266C76.433 197.331 76.7183 198.396 77.0377 199.588C76.8505 199.42 76.7431 199.327 76.6379 199.229C75.0139 197.732 73.3911 196.239 71.7723 194.729C71.5395 194.512 71.4658 194.546 71.3772 194.835C70.7227 196.975 70.0536 199.104 69.3887 201.236C69.3537 201.348 69.3138 201.452 69.241 201.66Z" fill="#5D5D5D"/>
<path d="M79.244 208.081L75.7788 204.883C75.2002 204.35 74.6148 203.83 74.0472 203.275C73.8177 203.05 73.7589 203.128 73.6781 203.391C73.0183 205.542 72.3512 207.687 71.6766 209.828C71.6448 209.93 71.6417 210.065 71.5165 210.136C71.3022 209.336 71.091 208.548 70.8798 207.759C70.8398 207.61 70.9047 207.495 70.9416 207.375C71.6249 205.181 72.3074 202.987 72.989 200.793C73.064 200.549 73.1281 200.491 73.3387 200.683C75.0407 202.269 76.7467 203.846 78.4567 205.415C78.55 205.501 78.6421 205.578 78.6834 205.735C78.8853 206.5 79.0931 207.263 79.2981 208.029L79.244 208.081Z" fill="#5D5D5D"/>
<path d="M73.5916 217.886C73.4269 217.271 73.2926 216.77 73.1585 216.27C73.1203 216.127 73.1731 216.029 73.2065 215.923C73.8998 213.692 74.5933 211.462 75.2868 209.233C75.3496 209.028 75.4021 208.981 75.5753 209.142C77.2985 210.743 79.0236 212.336 80.7507 213.922C80.8032 213.964 80.8504 214.019 80.8895 214.082C80.9286 214.146 80.9589 214.217 80.9786 214.292C81.0957 214.755 81.2258 215.214 81.3816 215.796C81.1695 215.607 81.0331 215.49 80.8997 215.366C79.3047 213.895 77.7072 212.429 76.1177 210.946C75.8903 210.733 75.8158 210.751 75.725 211.051C75.0824 213.153 74.4249 215.246 73.7714 217.342C73.7216 217.492 73.6722 217.644 73.5916 217.886Z" fill="#222222"/>
</g>
<path d="M56.3039 102.752C51.7898 103.033 44.5717 103.711 43.7228 108.259C40.5637 120.049 40.0427 131.643 38.7238 136.91C39.0328 136.993 52.5999 140.66 53.5384 140.84C56.5214 141.414 60.7741 139.656 61.7442 135.767C64.4355 124.978 63.7669 127.779 66.7325 116.711C68.6489 109.559 61.9389 102.401 56.3039 102.752Z" fill="#EA4335"/>
<path d="M30.364 154.131C26.6075 151.613 22.735 145.597 24.2739 141.235C28.229 126.473 32.0637 117.151 34.6318 108.149C37.4769 108.912 48.8498 111.866 49.6618 112.267C52.3859 113.611 55.2038 116.818 54.0994 120.672C51.0356 131.361 49.8827 136.136 46.8703 147.379C44.9535 154.533 35.0571 157.278 30.364 154.131Z" fill="#FDBD00"/>
<path d="M43.9833 99.0689C37.3309 97.249 34.4925 98.4817 31.5323 99.8066C28.9085 101.263 25.6538 104.325 24.7544 107.38C22.4855 115.087 20.4117 122.666 17.8299 132.877C17.0347 136.021 19.0694 139.078 20.8369 140.034C22.0349 140.682 30.1065 142.677 31.5535 142.887C33.6002 143.185 36.2024 141.899 37.4034 139.748C37.7351 139.153 43.3974 118.324 44.9276 112.218C45.5737 109.641 46.3644 108.099 47.9086 106.403C51.0045 103.547 53.7518 102.55 58.482 102.971C58.482 102.971 47.6494 100.048 43.9833 99.0689Z" fill="#2DA94F"/>
<path d="M18.306 151.272C11.6347 149.522 9.79288 147.035 7.89158 144.408C6.34785 141.835 5.06032 137.555 5.8088 134.459C7.69747 126.652 7.66151 126.624 10.5308 116.491C11.4144 113.37 14.705 111.74 16.7137 111.796C18.0751 111.834 26.0629 114.141 27.4212 114.683C29.3426 115.449 30.9531 117.863 30.9177 120.327C30.9077 121.007 27.4257 134.304 25.6984 140.357C24.9691 142.912 24.8829 144.643 25.3723 146.883C26.6255 150.904 28.5059 153.142 32.8131 155.143C32.8131 155.143 21.9704 152.257 18.306 151.272Z" fill="#297AEC"/>
<g clip-path="url(#clip6_260_453)">
<path d="M186.319 174.857C186.079 174.096 185.838 173.329 185.598 172.557C185.137 171.08 184.671 169.606 184.221 168.123C184.138 167.848 184.074 167.804 183.85 168.014C182.242 169.514 180.625 170.997 179.012 172.485C178.894 172.594 178.775 172.701 178.652 172.812C178.587 172.657 178.662 172.537 178.692 172.424C179.226 170.419 179.766 168.415 180.297 166.409C180.326 166.294 180.371 166.184 180.43 166.085C180.489 165.986 180.561 165.901 180.641 165.834C182.323 164.291 184.001 162.742 185.676 161.186C185.891 160.986 185.96 160.997 186.048 161.285C186.721 163.485 187.403 165.678 188.094 167.865C188.148 168.039 188.177 168.197 188.118 168.413C187.556 170.485 187.007 172.559 186.447 174.631C186.429 174.701 186.431 174.798 186.319 174.857Z" fill="#6E6E6E"/>
<path d="M184.054 183.532C183.629 182.171 183.236 180.914 182.843 179.654C182.538 178.673 182.223 177.697 181.932 176.705C181.845 176.411 181.768 176.381 181.536 176.599C179.88 178.143 178.217 179.669 176.555 181.201C176.491 181.26 176.423 181.314 176.361 181.367C176.275 181.278 176.347 181.177 176.37 181.094C176.841 179.335 177.312 177.577 177.779 175.816C177.825 175.608 177.93 175.42 178.07 175.293C179.762 173.743 181.451 172.185 183.137 170.619C183.359 170.413 183.441 170.42 183.533 170.725C184.199 172.901 184.879 175.068 185.558 177.236C185.62 177.435 185.655 177.616 185.587 177.863C185.097 179.661 184.619 181.462 184.136 183.261C184.123 183.31 184.106 183.36 184.054 183.532Z" fill="#6E6E6E"/>
<path d="M174.001 189.927L174.176 189.275C174.537 187.929 174.897 186.585 175.259 185.235C175.282 185.133 175.319 185.034 175.369 184.946C175.419 184.857 175.48 184.779 175.549 184.717C177.259 183.149 178.966 181.574 180.669 179.991C180.88 179.794 180.925 179.871 180.995 180.097C181.676 182.306 182.362 184.51 183.053 186.712C183.103 186.871 183.136 187.018 183.081 187.22C182.659 188.769 182.25 190.322 181.83 191.873C181.807 191.936 181.78 191.997 181.751 192.056C181.68 191.841 181.62 191.673 181.567 191.501C180.922 189.43 180.27 187.363 179.639 185.282C179.536 184.946 179.453 184.975 179.223 185.189C177.594 186.705 175.963 188.204 174.329 189.71C174.24 189.795 174.158 189.917 174.001 189.927Z" fill="#6E6E6E"/>
<path d="M179.426 200.581L178.488 197.577C178.094 196.317 177.695 195.061 177.313 193.793C177.234 193.53 177.164 193.542 176.98 193.714C175.342 195.237 173.7 196.753 172.056 198.261C171.959 198.35 171.872 198.483 171.705 198.499L172.102 197.015C172.312 196.232 172.527 195.449 172.729 194.665C172.754 194.557 172.795 194.452 172.849 194.359C172.904 194.265 172.971 194.183 173.045 194.119C174.737 192.569 176.425 191.012 178.109 189.446C178.3 189.269 178.377 189.232 178.466 189.521C179.147 191.745 179.845 193.956 180.536 196.174C180.573 196.294 180.615 196.405 180.573 196.563C180.213 197.891 179.861 199.22 179.505 200.548L179.426 200.581Z" fill="#6E6E6E"/>
<path d="M169.382 207.161C169.696 205.992 169.977 204.94 170.259 203.888C170.307 203.711 170.42 203.643 170.52 203.55C172.217 201.983 173.917 200.422 175.61 198.846C175.811 198.659 175.87 198.705 175.943 198.942C176.631 201.177 177.324 203.408 178.021 205.635C178.05 205.731 178.095 205.815 178.061 205.943C177.775 207.008 177.49 208.073 177.171 209.265C177.092 209.026 177.046 208.891 177.004 208.755C176.346 206.645 175.687 204.541 175.04 202.425C174.947 202.12 174.866 202.113 174.645 202.319C173.008 203.845 171.364 205.354 169.722 206.868C169.636 206.947 169.55 207.017 169.382 207.161Z" fill="#5D5D5D"/>
<path d="M174.835 217.723L173.433 213.221C173.198 212.47 172.951 211.727 172.737 210.963C172.651 210.653 172.561 210.692 172.359 210.879C170.713 212.411 169.062 213.936 167.408 215.452C167.329 215.525 167.259 215.64 167.115 215.639C167.329 214.839 167.541 214.051 167.752 213.263C167.792 213.113 167.906 213.046 167.998 212.961C169.686 211.402 171.374 209.843 173.062 208.284C173.249 208.111 173.333 208.092 173.419 208.364C174.101 210.588 174.79 212.807 175.486 215.02C175.524 215.142 175.565 215.254 175.522 215.411C175.315 216.175 175.113 216.94 174.908 217.705L174.835 217.723Z" fill="#5D5D5D"/>
<path d="M165.037 223.388C165.201 222.774 165.336 222.272 165.47 221.772C165.508 221.629 165.603 221.571 165.685 221.495C167.401 219.911 169.116 218.326 170.831 216.742C170.988 216.596 171.057 216.581 171.127 216.808C171.819 219.055 172.516 221.298 173.219 223.534C173.243 223.598 173.257 223.668 173.259 223.743C173.261 223.818 173.252 223.894 173.231 223.969C173.101 224.429 172.984 224.892 172.828 225.473C172.739 225.203 172.68 225.034 172.626 224.86C171.98 222.789 171.329 220.721 170.695 218.641C170.604 218.343 170.531 218.321 170.302 218.535C168.694 220.035 167.078 221.519 165.465 223.007C165.346 223.112 165.228 223.219 165.037 223.388Z" fill="#5D5D5D"/>
</g>
<g clip-path="url(#clip7_260_453)">
<path d="M201.878 179.027C201.638 178.265 201.398 177.498 201.157 176.727C200.697 175.249 200.231 173.775 199.781 172.293C199.698 172.018 199.634 171.973 199.409 172.183C197.801 173.684 196.185 175.166 194.572 176.655C194.454 176.764 194.335 176.871 194.212 176.982C194.146 176.826 194.222 176.707 194.252 176.594C194.786 174.588 195.326 172.585 195.857 170.578C195.886 170.463 195.931 170.353 195.99 170.254C196.049 170.156 196.12 170.07 196.2 170.003C197.882 168.461 199.561 166.911 201.236 165.355C201.451 165.156 201.52 165.166 201.607 165.455C202.281 167.654 202.963 169.848 203.654 172.035C203.708 172.208 203.737 172.366 203.678 172.582C203.116 174.654 202.567 176.729 202.007 178.801C201.989 178.87 201.991 178.968 201.878 179.027Z" fill="#6E6E6E"/>
<path d="M199.613 187.701C199.189 186.341 198.796 185.083 198.403 183.823C198.097 182.842 197.783 181.866 197.491 180.874C197.405 180.58 197.328 180.55 197.096 180.768C195.44 182.312 193.776 183.839 192.115 185.37C192.05 185.429 191.983 185.483 191.921 185.536C191.835 185.447 191.907 185.347 191.929 185.263C192.401 183.504 192.872 181.746 193.339 179.985C193.385 179.778 193.489 179.59 193.629 179.462C195.321 177.912 197.011 176.354 198.697 174.788C198.919 174.582 199.001 174.589 199.092 174.894C199.758 177.07 200.438 179.238 201.118 181.405C201.18 181.604 201.215 181.785 201.147 182.032C200.657 183.83 200.178 185.631 199.696 187.43C199.682 187.479 199.666 187.529 199.613 187.701Z" fill="#6E6E6E"/>
<path d="M189.561 194.097L189.736 193.444C190.097 192.099 190.457 190.754 190.819 189.404C190.842 189.302 190.879 189.204 190.929 189.115C190.979 189.026 191.04 188.948 191.109 188.886C192.819 187.319 194.525 185.743 196.229 184.16C196.44 183.964 196.485 184.04 196.555 184.267C197.236 186.475 197.922 188.68 198.613 190.881C198.663 191.04 198.696 191.187 198.641 191.389C198.218 192.939 197.809 194.491 197.39 196.042C197.367 196.105 197.34 196.166 197.311 196.225C197.24 196.01 197.18 195.842 197.127 195.67C196.481 193.599 195.83 191.532 195.199 189.451C195.096 189.116 195.013 189.144 194.783 189.358C193.154 190.875 191.523 192.373 189.889 193.879C189.8 193.964 189.718 194.086 189.561 194.097Z" fill="#6E6E6E"/>
<path d="M194.986 204.75L194.047 201.746C193.654 200.486 193.255 199.231 192.873 197.963C192.794 197.699 192.724 197.711 192.54 197.884C190.902 199.407 189.26 200.922 187.616 202.43C187.519 202.519 187.432 202.652 187.264 202.668L187.662 201.184C187.872 200.402 188.087 199.619 188.288 198.835C188.314 198.726 188.355 198.622 188.409 198.528C188.464 198.434 188.53 198.353 188.605 198.289C190.297 196.739 191.985 195.181 193.669 193.616C193.859 193.439 193.937 193.402 194.026 193.691C194.707 195.915 195.404 198.126 196.096 200.344C196.133 200.463 196.175 200.574 196.133 200.733C195.773 202.06 195.421 203.389 195.065 204.718L194.986 204.75Z" fill="#6E6E6E"/>
<path d="M184.942 211.331C185.255 210.161 185.537 209.109 185.819 208.057C185.867 207.881 185.98 207.812 186.08 207.719C187.776 206.152 189.477 204.592 191.17 203.015C191.371 202.829 191.43 202.875 191.503 203.111C192.191 205.346 192.884 207.577 193.581 209.804C193.61 209.9 193.655 209.984 193.621 210.112C193.335 211.177 193.05 212.242 192.73 213.434C192.652 213.195 192.606 213.061 192.564 212.924C191.906 210.815 191.247 208.711 190.6 206.594C190.507 206.289 190.426 206.282 190.205 206.488C188.568 208.014 186.924 209.523 185.282 211.037C185.196 211.117 185.11 211.186 184.942 211.331Z" fill="#5D5D5D"/>
<path d="M190.395 221.893L188.993 217.391C188.758 216.639 188.511 215.896 188.297 215.132C188.211 214.822 188.121 214.861 187.919 215.048C186.273 216.581 184.622 218.105 182.968 219.622C182.889 219.694 182.819 219.81 182.675 219.808C182.889 219.009 183.101 218.22 183.312 217.432C183.352 217.283 183.466 217.215 183.558 217.13C185.246 215.572 186.934 214.013 188.622 212.454C188.808 212.28 188.893 212.261 188.979 212.533C189.661 214.758 190.35 216.976 191.046 219.19C191.084 219.311 191.125 219.424 191.082 219.58C190.875 220.344 190.673 221.109 190.468 221.874L190.395 221.893Z" fill="#5D5D5D"/>
<path d="M180.597 227.558C180.762 226.943 180.896 226.442 181.03 225.941C181.068 225.799 181.163 225.74 181.245 225.665C182.961 224.08 184.676 222.496 186.392 220.912C186.548 220.765 186.617 220.751 186.687 220.977C187.379 223.225 188.076 225.467 188.779 227.704C188.803 227.767 188.817 227.838 188.819 227.913C188.821 227.987 188.812 228.064 188.791 228.139C188.661 228.599 188.544 229.061 188.388 229.643C188.299 229.373 188.24 229.203 188.186 229.03C187.54 226.958 186.889 224.89 186.255 222.81C186.164 222.513 186.091 222.491 185.862 222.705C184.254 224.204 182.638 225.688 181.025 227.176C180.906 227.282 180.788 227.389 180.597 227.558Z" fill="#5D5D5D"/>
</g>
<g clip-path="url(#clip8_260_453)">
<path d="M217.438 183.196C217.198 182.434 216.958 181.668 216.717 180.896C216.257 179.419 215.791 177.944 215.341 176.462C215.258 176.187 215.194 176.143 214.969 176.353C213.361 177.853 211.745 179.336 210.132 180.824C210.014 180.933 209.895 181.04 209.772 181.151C209.706 180.996 209.781 180.876 209.812 180.763C210.346 178.758 210.886 176.754 211.417 174.748C211.446 174.633 211.491 174.523 211.55 174.424C211.609 174.325 211.68 174.24 211.76 174.173C213.442 172.63 215.121 171.081 216.796 169.525C217.011 169.325 217.08 169.336 217.167 169.624C217.841 171.824 218.523 174.017 219.214 176.204C219.268 176.378 219.297 176.536 219.238 176.752C218.676 178.824 218.127 180.898 217.566 182.97C217.548 183.039 217.551 183.137 217.438 183.196Z" fill="#6E6E6E"/>
<path d="M215.173 191.871C214.749 190.51 214.355 189.252 213.963 187.993C213.657 187.011 213.343 186.035 213.051 185.043C212.964 184.75 212.888 184.719 212.655 184.937C211 186.481 209.336 188.008 207.675 189.54C207.61 189.599 207.543 189.652 207.481 189.705C207.395 189.617 207.467 189.516 207.489 189.433C207.96 187.674 208.432 185.916 208.899 184.154C208.945 183.947 209.049 183.759 209.189 183.631C210.881 182.081 212.57 180.523 214.257 178.957C214.479 178.752 214.561 178.759 214.652 179.063C215.318 181.24 215.998 183.407 216.677 185.575C216.739 185.773 216.775 185.954 216.707 186.201C216.217 187.999 215.738 189.8 215.255 191.599C215.242 191.649 215.226 191.698 215.173 191.871Z" fill="#6E6E6E"/>
<path d="M205.121 198.266L205.296 197.614C205.656 196.268 206.017 194.923 206.379 193.573C206.401 193.471 206.439 193.373 206.489 193.284C206.538 193.195 206.6 193.118 206.669 193.056C208.379 191.488 210.085 189.913 211.788 188.329C211.999 188.133 212.045 188.21 212.114 188.436C212.796 190.644 213.482 192.849 214.173 195.05C214.223 195.21 214.256 195.356 214.2 195.559C213.778 197.108 213.369 198.661 212.95 200.212C212.926 200.274 212.9 200.336 212.871 200.395C212.8 200.18 212.74 200.011 212.687 199.84C212.041 197.769 211.39 195.702 210.759 193.62C210.656 193.285 210.573 193.313 210.343 193.527C208.714 195.044 207.083 196.543 205.448 198.049C205.359 198.134 205.278 198.256 205.121 198.266Z" fill="#6E6E6E"/>
<path d="M210.546 208.92L209.607 205.915C209.214 204.656 208.815 203.4 208.433 202.132C208.354 201.868 208.284 201.881 208.1 202.053C206.461 203.576 204.82 205.092 203.176 206.599C203.079 206.688 202.992 206.821 202.824 206.837L203.222 205.353C203.432 204.571 203.647 203.788 203.848 203.004C203.874 202.895 203.915 202.791 203.969 202.697C204.024 202.603 204.09 202.522 204.165 202.458C205.857 200.908 207.545 199.35 209.229 197.785C209.419 197.608 209.497 197.571 209.585 197.86C210.267 200.084 210.964 202.295 211.656 204.513C211.693 204.632 211.735 204.743 211.693 204.902C211.333 206.229 210.981 207.559 210.625 208.887L210.546 208.92Z" fill="#6E6E6E"/>
<path d="M200.502 215.5C200.815 214.331 201.097 213.279 201.379 212.226C201.426 212.05 201.539 211.981 201.64 211.889C203.336 210.321 205.036 208.761 206.73 207.185C206.93 206.998 206.989 207.044 207.062 207.281C207.751 209.516 208.443 211.747 209.141 213.974C209.17 214.07 209.215 214.154 209.18 214.281C208.895 215.347 208.61 216.411 208.29 217.604C208.212 217.364 208.166 217.23 208.123 217.093C207.466 214.984 206.807 212.88 206.16 210.763C206.067 210.458 205.986 210.451 205.764 210.657C204.128 212.183 202.484 213.693 200.842 215.207C200.756 215.286 200.669 215.356 200.502 215.5Z" fill="#5D5D5D"/>
<path d="M205.955 226.062L204.553 221.56C204.318 220.809 204.071 220.066 203.857 219.301C203.771 218.992 203.681 219.031 203.479 219.218C201.833 220.75 200.182 222.275 198.528 223.791C198.449 223.864 198.379 223.979 198.235 223.978C198.449 223.178 198.661 222.39 198.872 221.601C198.912 221.452 199.026 221.385 199.117 221.3C200.806 219.741 202.494 218.182 204.182 216.623C204.368 216.449 204.453 216.431 204.539 216.703C205.221 218.927 205.909 221.146 206.606 223.359C206.644 223.481 206.685 223.593 206.642 223.75C206.435 224.513 206.233 225.279 206.028 226.044L205.955 226.062Z" fill="#5D5D5D"/>
<path d="M196.157 231.727C196.321 231.113 196.456 230.611 196.59 230.111C196.628 229.968 196.723 229.909 196.805 229.834C198.521 228.249 200.236 226.665 201.951 225.081C202.108 224.935 202.177 224.92 202.247 225.147C202.939 227.394 203.636 229.636 204.339 231.873C204.363 231.936 204.377 232.007 204.379 232.082C204.381 232.156 204.372 232.233 204.351 232.308C204.221 232.768 204.104 233.231 203.948 233.812C203.859 233.542 203.8 233.373 203.746 233.199C203.1 231.128 202.449 229.059 201.815 226.98C201.724 226.682 201.651 226.66 201.422 226.874C199.814 228.374 198.198 229.858 196.585 231.346C196.466 231.451 196.348 231.558 196.157 231.727Z" fill="#5D5D5D"/>
</g>
<g clip-path="url(#clip9_260_453)">
<rect x="191.133" y="93.293" width="57.92" height="57.92" rx="10.2643" transform="rotate(15 191.133 93.293)" fill="white"/>
<g clip-path="url(#clip10_260_453)">
<rect width="41.0572" height="41.0572" transform="translate(197.095 103.619) rotate(15)" fill="white"/>
<path d="M205.65 137.791L208.749 126.224" stroke="#622DBF" stroke-width="3.42143" stroke-linecap="round" stroke-linejoin="round"/>
<path d="M214.497 112.175C215.009 112.076 215.537 112.096 216.041 112.233C216.544 112.369 217.01 112.619 217.402 112.964L228.697 122.804C229.38 123.399 228.789 124.509 227.913 124.274L199.736 116.724C198.86 116.49 198.905 115.233 199.793 115.059L214.497 112.175Z" stroke="#622DBF" stroke-width="3.42143" stroke-linecap="round" stroke-linejoin="round"/>
<path d="M212.259 139.562L215.358 127.995" stroke="#622DBF" stroke-width="3.42143" stroke-linecap="round" stroke-linejoin="round"/>
<path d="M218.869 141.333L221.968 129.766" stroke="#622DBF" stroke-width="3.42143" stroke-linecap="round" stroke-linejoin="round"/>
<path d="M192.311 141.301L222.055 149.27" stroke="#622DBF" stroke-width="3.42143" stroke-linecap="round" stroke-linejoin="round"/>
<path d="M199.04 136.019L202.139 124.452" stroke="#622DBF" stroke-width="3.42143" stroke-linecap="round" stroke-linejoin="round"/>
</g>
</g>
<defs>
<clipPath id="clip0_260_453">
<rect width="65.6183" height="8.0761" fill="white" transform="translate(103.963 152.287) rotate(-90)"/>
</clipPath>
<clipPath id="clip1_260_453">
<rect width="65.6183" height="8.0761" fill="white" transform="translate(120.072 152.287) rotate(-90)"/>
</clipPath>
<clipPath id="clip2_260_453">
<rect width="65.6183" height="8.0761" fill="white" transform="translate(136.181 152.287) rotate(-90)"/>
</clipPath>
<clipPath id="clip3_260_453">
<rect width="65.6183" height="8.0761" fill="white" transform="translate(42.4631 226.226) rotate(-105)"/>
</clipPath>
<clipPath id="clip4_260_453">
<rect width="65.6183" height="8.0761" fill="white" transform="translate(58.0229 222.057) rotate(-105)"/>
</clipPath>
<clipPath id="clip5_260_453">
<rect width="65.6183" height="8.0761" fill="white" transform="translate(73.5829 217.888) rotate(-105)"/>
</clipPath>
<clipPath id="clip6_260_453">
<rect width="65.6183" height="8.0761" fill="white" transform="translate(165.028 223.386) rotate(-75)"/>
</clipPath>
<clipPath id="clip7_260_453">
<rect width="65.6183" height="8.0761" fill="white" transform="translate(180.588 227.555) rotate(-75)"/>
</clipPath>
<clipPath id="clip8_260_453">
<rect width="65.6183" height="8.0761" fill="white" transform="translate(196.148 231.724) rotate(-75)"/>
</clipPath>
<clipPath id="clip9_260_453">
<rect x="191.133" y="93.293" width="57.92" height="57.92" rx="10.2643" transform="rotate(15 191.133 93.293)" fill="white"/>
</clipPath>
<clipPath id="clip10_260_453">
<rect width="41.0572" height="41.0572" fill="white" transform="translate(197.095 103.619) rotate(15)"/>
</clipPath>
</defs>
</svg>
