<svg width="32" height="32" viewBox="0 0 32 32" fill="none" xmlns="http://www.w3.org/2000/svg">
<path d="M28.6663 12.0007C28.6663 15.6059 26.465 18.6971 23.333 20.0031V20.0007C23.333 13.7415 18.2589 8.66732 11.9997 8.66732H11.9972C13.3033 5.53538 16.3945 3.33398 19.9997 3.33398C24.7862 3.33398 28.6663 7.21418 28.6663 12.0007ZM9.33301 4.00065C6.38749 4.00065 3.99967 6.38846 3.99967 9.33398V11.334H6.66634V9.33398C6.66634 7.86122 7.86025 6.66732 9.33301 6.66732H11.333V4.00065H9.33301ZM25.333 20.6673V22.6673C25.333 24.1401 24.1391 25.334 22.6663 25.334H20.6663V28.0007H22.6663C25.6118 28.0007 27.9997 25.6128 27.9997 22.6673V20.6673H25.333ZM11.9997 28.6673C16.7862 28.6673 20.6663 24.7872 20.6663 20.0007C20.6663 15.2141 16.7862 11.334 11.9997 11.334C7.21321 11.334 3.33301 15.2141 3.33301 20.0007C3.33301 24.7872 7.21321 28.6673 11.9997 28.6673ZM11.9997 16.6673L15.333 20.0007L11.9997 23.334L8.66634 20.0007L11.9997 16.6673Z" fill="white"/>
</svg>
