<svg fill="none" height="100%" width="100%" viewBox="0 0 128 128" xmlns:xlink="http://www.w3.org/1999/xlink" xmlns="http://www.w3.org/2000/svg"><defs><clipPath id="i0"><rect height="256" width="256" y="0" x="0" /></clipPath><g id="i1"><g visibility="hidden" id="i2"><animate repeatCount="indefinite" begin="0s" calcMode="discrete" dur="4s" values="hidden; visible; visible" keyTimes="0; 0.75; 1" attributeName="visibility" /><g transform="translate(148,128)"><animateTransform repeatCount="indefinite" type="translate" attributeName="transform" dur="4s" begin="0s" calcMode="spline" values="148 128; 148 128; 128 128; 128 128" keyTimes="0; 0.75; 0.816667; 1" keySplines="0 0 1 1; 0.333 0 0.667 1; 0 0 1 1" fill="freeze" /><g transform="scale(2,2)"><animateTransform repeatCount="indefinite" type="scale" attributeName="transform" dur="4s" begin="0s" calcMode="spline" values="2 2; 2 2; 4 4; 4.4 4.4; 3.8 3.8; 4.1 4.1; 3.95 3.95; 4 4; 4 4" keyTimes="0; 0.75; 0.816667; 0.866667; 0.908333; 0.933333; 0.958333; 0.983333; 1" keySplines="0 0 1 1; 0.333 0 0.667 1; 0.333 0 0.667 1; 0.333 0 0.667 1; 0.333 0 0.667 1; 0.333 0 0.667 1; 0.333 0 0.667 1; 0 0 1 1" fill="freeze" /><g transform="translate(-12,-12)"><g id="i3" transform="matrix(1,0,0,1,12.077,12)"><path fill="#6e32dc" d="M-10.068,-9.161C-10.068,-9.161,-10.076,-1.538,-10.076,-1.538C-10.077,-1.33,-9.917,-1.157,-9.71,-1.141C-9.71,-1.141,4.949,-0.001,4.949,-0.001C4.949,-0.001,-9.71,1.139,-9.71,1.139C-9.917,1.155,-10.077,1.328,-10.076,1.536C-10.076,1.536,-10.068,9.16,-10.068,9.16C-10.068,9.784,-9.412,10.19,-8.854,9.91C-8.854,9.91,9.458,0.751,9.458,0.751C10.077,0.442,10.077,-0.441,9.458,-0.751C9.458,-0.751,-8.854,-9.911,-8.854,-9.911C-9.412,-10.19,-10.068,-9.785,-10.068,-9.161Z" /></g></g></g></g></g><g visibility="hidden" id="i4"><animate repeatCount="indefinite" begin="0s" calcMode="discrete" dur="4s" values="hidden; visible; hidden; hidden" keyTimes="0; 0.233; 0.8; 1" attributeName="visibility" /><g transform="translate(128,128)"><animateTransform repeatCount="indefinite" type="translate" attributeName="transform" dur="4s" begin="0s" calcMode="spline" values="128 128; 128 128; 138 128; 138 128" keyTimes="0; 0.75; 0.8; 1" keySplines="0 0 1 1; 0.333 0 0.667 1; 0 0 1 1" fill="freeze" /><g transform="scale(0.4,0.4)"><animateTransform repeatCount="indefinite" type="scale" attributeName="transform" dur="4s" begin="0s" calcMode="spline" values="0.4 0.4; 0.4 0.4; 1.1 1.1; 1 1; 1 1; 0.17 0.17; 0.17 0.17" keyTimes="0; 0.233333; 0.291666; 0.325; 0.75; 0.8; 1" keySplines="0 0 1 1; 0.333 0 0.667 1; 0.333 0 0.667 1; 0.333 0 0.667 1; 0.333 0 0.833 1; 0 0 1 1" fill="freeze" /><g transform="translate(0,0)"><g id="i5" transform="matrix(4,0,0,4,0,0)"><path fill="#8746ff" fill-rule="evenodd" d="M18,0C18,9.941,9.941,18,0,18C-9.941,18,-18,9.941,-18,0C-18,-9.941,-9.941,-18,0,-18C9.941,-18,18,-9.941,18,0Z"><animate repeatCount="indefinite" attributeName="d" dur="4s" begin="0s" calcMode="spline" values="M18,0C18,9.941,9.941,18,0,18C-9.941,18,-18,9.941,-18,0C-18,-9.941,-9.941,-18,0,-18C9.941,-18,18,-9.941,18,0Z; M18,0C18,9.941,9.941,18,0,18C-9.941,18,-18,9.941,-18,0C-18,-9.941,-9.941,-18,0,-18C9.941,-18,18,-9.941,18,0Z; M27,0C27,5.125,9.941,16.75,0,16.75C-9.941,16.75,-18,9.941,-18,0C-18,-9.941,-9.941,-16.375,0,-16.375C9.941,-16.375,27,-5.75,27,0Z; M16.125,0C16.125,9.941,9.941,18,0,18C-9.941,18,-18,9.941,-18,0C-18,-9.941,-9.941,-18,0,-18C9.941,-18,16.125,-9.941,16.125,0Z; M18.625,0.125C18.625,10.066,9.941,18,0,18C-9.941,18,-18,9.941,-18,0C-18,-9.941,-9.941,-18,0,-18C9.941,-18,18.625,-9.816,18.625,0.125Z; M18,0C18,9.941,9.941,18,0,18C-9.941,18,-18,9.941,-18,0C-18,-9.941,-9.941,-18,0,-18C9.941,-18,18,-9.941,18,0Z; M18,0C18,9.941,9.941,18,0,18C-9.941,18,-18,9.941,-18,0C-18,-9.941,-9.941,-18,0,-18C9.941,-18,18,-9.941,18,0Z" keyTimes="0; 0.341667; 0.391667; 0.441667; 0.475; 0.5; 1" keySplines="0 0 1 1; 0.333 0 0.667 1; 0.333 0 0.667 1; 0.333 0 0.667 1; 0.333 0 0.667 1; 0 0 1 1" fill="freeze" /></path></g></g></g></g></g><g transform="matrix(4,0,0,4,80,80)" visibility="visible" id="i4"><animate repeatCount="indefinite" begin="0s" calcMode="discrete" dur="4s" values="visible; hidden; hidden" keyTimes="0; 0.233; 1" attributeName="visibility" /><g id="i3" transform="matrix(1,0,0,1,12.077,12)"><path fill="#6e32dc" d="M-10.068,-9.161C-10.068,-9.161,-10.076,-1.538,-10.076,-1.538C-10.077,-1.33,-9.917,-1.157,-9.71,-1.141C-9.71,-1.141,4.949,-0.001,4.949,-0.001C4.949,-0.001,-9.71,1.139,-9.71,1.139C-9.917,1.155,-10.077,1.328,-10.076,1.536C-10.076,1.536,-10.068,9.16,-10.068,9.16C-10.068,9.784,-9.412,10.19,-8.854,9.91C-8.854,9.91,9.458,0.751,9.458,0.751C10.077,0.442,10.077,-0.441,9.458,-0.751C9.458,-0.751,-8.854,-9.911,-8.854,-9.911C-9.412,-10.19,-10.068,-9.785,-10.068,-9.161Z" /></g></g><g visibility="hidden" id="i6"><animate repeatCount="indefinite" begin="0s" calcMode="discrete" dur="4s" values="hidden; visible; hidden; hidden" keyTimes="0; 0.233; 0.475; 1" attributeName="visibility" /><g transform="translate(128,128)"><animateTransform repeatCount="indefinite" type="translate" attributeName="transform" dur="4s" begin="0s" calcMode="spline" values="128 128; 128 128; 188 128; 288 128; 288 128" keyTimes="0; 0.291667; 0.416667; 0.475; 1" keySplines="0 0 1 1; 0.333 0 0.667 1; 0.333 0 0.667 1; 0 0 1 1" fill="freeze" /><g transform="scale(4,4) translate(-12,-12)"><g id="i3" transform="matrix(1,0,0,1,12.077,12)"><path fill="#d9e0e6" d="M-10.068,-9.161C-10.068,-9.161,-10.076,-1.538,-10.076,-1.538C-10.077,-1.33,-9.917,-1.157,-9.71,-1.141C-9.71,-1.141,4.949,-0.001,4.949,-0.001C4.949,-0.001,-9.71,1.139,-9.71,1.139C-9.917,1.155,-10.077,1.328,-10.076,1.536C-10.076,1.536,-10.068,9.16,-10.068,9.16C-10.068,9.784,-9.412,10.19,-8.854,9.91C-8.854,9.91,9.458,0.751,9.458,0.751C10.077,0.442,10.077,-0.441,9.458,-0.751C9.458,-0.751,-8.854,-9.911,-8.854,-9.911C-9.412,-10.19,-10.068,-9.785,-10.068,-9.161Z" /></g></g></g></g><g visibility="hidden" id="i7"><animate repeatCount="indefinite" begin="0s" calcMode="discrete" dur="4s" values="hidden; visible; hidden; hidden" keyTimes="0; 0.45; 0.825; 1" attributeName="visibility" /><g transform="translate(128,128)"><g transform="rotate(180)"><animateTransform repeatCount="indefinite" type="rotate" attributeName="transform" dur="4s" begin="0s" calcMode="spline" values="180; 180; 368; 356; 362; 359; 360; 360" keyTimes="0; 0.45; 0.516667; 0.558333; 0.591667; 0.616667; 0.641667; 1" keySplines="0 0 1 1; 0.333 0 0.667 1; 0.333 0 0.667 1; 0.333 0 0.667 1; 0.167 0 0.667 1; 0.167 0 0.667 1; 0 0 1 1" fill="freeze" /><g transform="scale(1,1)"><animateTransform repeatCount="indefinite" type="scale" attributeName="transform" dur="4s" begin="0s" calcMode="spline" values="1 1; 1 1; 2 2; 2 2; 1 1; 1 1" keyTimes="0; 0.45; 0.516667; 0.791667; 0.825; 1" keySplines="0 0 1 1; 0.333 0 0.667 1; 0.167 0 0.667 1; 0.167 0 0.833 1; 0 0 1 1" fill="freeze" /><g transform="translate(-24,-24)"><g id="i3" transform="matrix(1,0,0,1,24,24)"><path d="M-15.694,3.946C-15.694,3.946,-7.057,12.69,-7.057,12.69C-6.65,13.103,-5.989,13.103,-5.582,12.69C-5.582,12.69,15.695,-8.852,15.695,-8.852C16.102,-9.264,16.102,-9.933,15.695,-10.346C15.695,-10.346,13.379,-12.691,13.379,-12.691C12.971,-13.103,12.31,-13.103,11.903,-12.691C11.903,-12.691,-6.319,5.758,-6.319,5.758C-6.319,5.758,-11.902,0.107,-11.902,0.107C-12.309,-0.306,-12.97,-0.306,-13.377,0.107C-13.377,0.107,-15.694,2.452,-15.694,2.452C-16.102,2.865,-16.102,3.533,-15.694,3.946Z" fill="#d9e0e6"><animate repeatCount="indefinite" attributeName="d" dur="4s" begin="0s" calcMode="spline" values="M-15.694,3.946C-15.694,3.946,-7.057,12.69,-7.057,12.69C-6.65,13.103,-5.989,13.103,-5.582,12.69C-5.582,12.69,15.695,-8.852,15.695,-8.852C16.102,-9.264,16.102,-9.933,15.695,-10.346C15.695,-10.346,13.379,-12.691,13.379,-12.691C12.971,-13.103,12.31,-13.103,11.903,-12.691C11.903,-12.691,-6.319,5.758,-6.319,5.758C-6.319,5.758,-11.902,0.107,-11.902,0.107C-12.309,-0.306,-12.97,-0.306,-13.377,0.107C-13.377,0.107,-15.694,2.452,-15.694,2.452C-16.102,2.865,-16.102,3.533,-15.694,3.946Z; M-15.694,3.946C-15.694,3.946,-7.057,12.69,-7.057,12.69C-6.65,13.103,-5.989,13.103,-5.582,12.69C-5.582,12.69,15.695,-8.852,15.695,-8.852C16.102,-9.264,16.102,-9.933,15.695,-10.346C15.695,-10.346,13.379,-12.691,13.379,-12.691C12.971,-13.103,12.31,-13.103,11.903,-12.691C11.903,-12.691,-6.319,5.758,-6.319,5.758C-6.319,5.758,-11.902,0.107,-11.902,0.107C-12.309,-0.306,-12.97,-0.306,-13.377,0.107C-13.377,0.107,-15.694,2.452,-15.694,2.452C-16.102,2.865,-16.102,3.533,-15.694,3.946Z; M-20.366,2.956C-20.366,2.956,-6.057,1.737,-6.057,1.737C-6,1.765,-6.313,1.828,-6.02,1.737C-6.02,1.737,9.133,0.57,9.133,0.57C9.126,0.547,9.375,0.781,9.445,0.638C9.445,0.638,9.441,-0.019,9.441,-0.019C9.437,-0.094,9.125,-0.156,9.09,-0.144C9.09,-0.144,-6.069,-1.633,-6.069,-1.633C-6.069,-1.633,-20.324,-2.9,-20.324,-2.9C-20.484,-2.875,-20.546,-2.813,-20.488,-2.784C-20.488,-2.784,-20.491,2.811,-20.491,2.811C-20.484,2.937,-20.734,2.937,-20.366,2.956Z; M-20.366,2.956C-20.366,2.956,-6.057,1.737,-6.057,1.737C-6,1.765,-6.313,1.828,-6.02,1.737C-6.02,1.737,9.133,0.57,9.133,0.57C9.126,0.547,9.375,0.781,9.445,0.638C9.445,0.638,9.441,-0.019,9.441,-0.019C9.437,-0.094,9.125,-0.156,9.09,-0.144C9.09,-0.144,-6.069,-1.633,-6.069,-1.633C-6.069,-1.633,-20.324,-2.9,-20.324,-2.9C-20.484,-2.875,-20.546,-2.813,-20.488,-2.784C-20.488,-2.784,-20.491,2.811,-20.491,2.811C-20.484,2.937,-20.734,2.937,-20.366,2.956Z" keyTimes="0; 0.75; 0.791667; 1" keySplines="0 0 1 1; 0.333 0 0.667 1; 0 0 1 1" fill="freeze" /></path></g></g></g></g></g></g></g></defs><g transform="matrix(0.5,0,0,0.5,0,0)" id="i8"><g clip-path="url(#i0)"><g visibility="hidden"><animate repeatCount="indefinite" begin="0s" calcMode="discrete" dur="4s" values="hidden; visible; visible" keyTimes="0; 0.75; 1" attributeName="visibility" /><g transform="translate(148,128)"><animateTransform repeatCount="indefinite" type="translate" attributeName="transform" dur="4s" begin="0s" calcMode="spline" values="148 128; 148 128; 128 128; 128 128" keyTimes="0; 0.75; 0.816667; 1" keySplines="0 0 1 1; 0.333 0 0.667 1; 0 0 1 1" fill="freeze" /><g transform="scale(2,2)"><animateTransform repeatCount="indefinite" type="scale" attributeName="transform" dur="4s" begin="0s" calcMode="spline" values="2 2; 2 2; 4 4; 4.4 4.4; 3.8 3.8; 4.1 4.1; 3.95 3.95; 4 4; 4 4" keyTimes="0; 0.75; 0.816667; 0.866667; 0.908333; 0.933333; 0.958333; 0.983333; 1" keySplines="0 0 1 1; 0.333 0 0.667 1; 0.333 0 0.667 1; 0.333 0 0.667 1; 0.333 0 0.667 1; 0.333 0 0.667 1; 0.333 0 0.667 1; 0 0 1 1" fill="freeze" /><g transform="translate(-12,-12)"><g transform="matrix(1,0,0,1,12.077,12)"><path fill="#6e32dc" d="M-10.068,-9.161C-10.068,-9.161,-10.076,-1.538,-10.076,-1.538C-10.077,-1.33,-9.917,-1.157,-9.71,-1.141C-9.71,-1.141,4.949,-0.001,4.949,-0.001C4.949,-0.001,-9.71,1.139,-9.71,1.139C-9.917,1.155,-10.077,1.328,-10.076,1.536C-10.076,1.536,-10.068,9.16,-10.068,9.16C-10.068,9.784,-9.412,10.19,-8.854,9.91C-8.854,9.91,9.458,0.751,9.458,0.751C10.077,0.442,10.077,-0.441,9.458,-0.751C9.458,-0.751,-8.854,-9.911,-8.854,-9.911C-9.412,-10.19,-10.068,-9.785,-10.068,-9.161Z" /></g></g></g></g></g><g visibility="hidden"><animate repeatCount="indefinite" begin="0s" calcMode="discrete" dur="4s" values="hidden; visible; hidden; hidden" keyTimes="0; 0.233; 0.8; 1" attributeName="visibility" /><g transform="translate(128,128)"><animateTransform repeatCount="indefinite" type="translate" attributeName="transform" dur="4s" begin="0s" calcMode="spline" values="128 128; 128 128; 138 128; 138 128" keyTimes="0; 0.75; 0.8; 1" keySplines="0 0 1 1; 0.333 0 0.667 1; 0 0 1 1" fill="freeze" /><g transform="scale(0.4,0.4)"><animateTransform repeatCount="indefinite" type="scale" attributeName="transform" dur="4s" begin="0s" calcMode="spline" values="0.4 0.4; 0.4 0.4; 1.1 1.1; 1 1; 1 1; 0.17 0.17; 0.17 0.17" keyTimes="0; 0.233333; 0.291666; 0.325; 0.75; 0.8; 1" keySplines="0 0 1 1; 0.333 0 0.667 1; 0.333 0 0.667 1; 0.333 0 0.667 1; 0.333 0 0.833 1; 0 0 1 1" fill="freeze" /><g transform="translate(0,0)"><g transform="matrix(4,0,0,4,0,0)"><path fill="#8746ff" fill-rule="evenodd" d="M18,0C18,9.941,9.941,18,0,18C-9.941,18,-18,9.941,-18,0C-18,-9.941,-9.941,-18,0,-18C9.941,-18,18,-9.941,18,0Z"><animate repeatCount="indefinite" attributeName="d" dur="4s" begin="0s" calcMode="spline" values="M18,0C18,9.941,9.941,18,0,18C-9.941,18,-18,9.941,-18,0C-18,-9.941,-9.941,-18,0,-18C9.941,-18,18,-9.941,18,0Z; M18,0C18,9.941,9.941,18,0,18C-9.941,18,-18,9.941,-18,0C-18,-9.941,-9.941,-18,0,-18C9.941,-18,18,-9.941,18,0Z; M27,0C27,5.125,9.941,16.75,0,16.75C-9.941,16.75,-18,9.941,-18,0C-18,-9.941,-9.941,-16.375,0,-16.375C9.941,-16.375,27,-5.75,27,0Z; M16.125,0C16.125,9.941,9.941,18,0,18C-9.941,18,-18,9.941,-18,0C-18,-9.941,-9.941,-18,0,-18C9.941,-18,16.125,-9.941,16.125,0Z; M18.625,0.125C18.625,10.066,9.941,18,0,18C-9.941,18,-18,9.941,-18,0C-18,-9.941,-9.941,-18,0,-18C9.941,-18,18.625,-9.816,18.625,0.125Z; M18,0C18,9.941,9.941,18,0,18C-9.941,18,-18,9.941,-18,0C-18,-9.941,-9.941,-18,0,-18C9.941,-18,18,-9.941,18,0Z; M18,0C18,9.941,9.941,18,0,18C-9.941,18,-18,9.941,-18,0C-18,-9.941,-9.941,-18,0,-18C9.941,-18,18,-9.941,18,0Z" keyTimes="0; 0.341667; 0.391667; 0.441667; 0.475; 0.5; 1" keySplines="0 0 1 1; 0.333 0 0.667 1; 0.333 0 0.667 1; 0.333 0 0.667 1; 0.333 0 0.667 1; 0 0 1 1" fill="freeze" /></path></g></g></g></g></g><g transform="matrix(4,0,0,4,80,80)" visibility="visible"><animate repeatCount="indefinite" begin="0s" calcMode="discrete" dur="4s" values="visible; hidden; hidden" keyTimes="0; 0.233; 1" attributeName="visibility" /><g transform="matrix(1,0,0,1,12.077,12)"><path fill="#6e32dc" d="M-10.068,-9.161C-10.068,-9.161,-10.076,-1.538,-10.076,-1.538C-10.077,-1.33,-9.917,-1.157,-9.71,-1.141C-9.71,-1.141,4.949,-0.001,4.949,-0.001C4.949,-0.001,-9.71,1.139,-9.71,1.139C-9.917,1.155,-10.077,1.328,-10.076,1.536C-10.076,1.536,-10.068,9.16,-10.068,9.16C-10.068,9.784,-9.412,10.19,-8.854,9.91C-8.854,9.91,9.458,0.751,9.458,0.751C10.077,0.442,10.077,-0.441,9.458,-0.751C9.458,-0.751,-8.854,-9.911,-8.854,-9.911C-9.412,-10.19,-10.068,-9.785,-10.068,-9.161Z" /></g></g><g visibility="hidden"><animate repeatCount="indefinite" begin="0s" calcMode="discrete" dur="4s" values="hidden; visible; hidden; hidden" keyTimes="0; 0.233; 0.475; 1" attributeName="visibility" /><g transform="translate(128,128)"><animateTransform repeatCount="indefinite" type="translate" attributeName="transform" dur="4s" begin="0s" calcMode="spline" values="128 128; 128 128; 188 128; 288 128; 288 128" keyTimes="0; 0.291667; 0.416667; 0.475; 1" keySplines="0 0 1 1; 0.333 0 0.667 1; 0.333 0 0.667 1; 0 0 1 1" fill="freeze" /><g transform="scale(4,4) translate(-12,-12)"><g transform="matrix(1,0,0,1,12.077,12)"><path fill="#d9e0e6" d="M-10.068,-9.161C-10.068,-9.161,-10.076,-1.538,-10.076,-1.538C-10.077,-1.33,-9.917,-1.157,-9.71,-1.141C-9.71,-1.141,4.949,-0.001,4.949,-0.001C4.949,-0.001,-9.71,1.139,-9.71,1.139C-9.917,1.155,-10.077,1.328,-10.076,1.536C-10.076,1.536,-10.068,9.16,-10.068,9.16C-10.068,9.784,-9.412,10.19,-8.854,9.91C-8.854,9.91,9.458,0.751,9.458,0.751C10.077,0.442,10.077,-0.441,9.458,-0.751C9.458,-0.751,-8.854,-9.911,-8.854,-9.911C-9.412,-10.19,-10.068,-9.785,-10.068,-9.161Z" /></g></g></g></g><g visibility="hidden"><animate repeatCount="indefinite" begin="0s" calcMode="discrete" dur="4s" values="hidden; visible; hidden; hidden" keyTimes="0; 0.45; 0.825; 1" attributeName="visibility" /><g transform="translate(128,128)"><g transform="rotate(180)"><animateTransform repeatCount="indefinite" type="rotate" attributeName="transform" dur="4s" begin="0s" calcMode="spline" values="180; 180; 368; 356; 362; 359; 360; 360" keyTimes="0; 0.45; 0.516667; 0.558333; 0.591667; 0.616667; 0.641667; 1" keySplines="0 0 1 1; 0.333 0 0.667 1; 0.333 0 0.667 1; 0.333 0 0.667 1; 0.167 0 0.667 1; 0.167 0 0.667 1; 0 0 1 1" fill="freeze" /><g transform="scale(1,1)"><animateTransform repeatCount="indefinite" type="scale" attributeName="transform" dur="4s" begin="0s" calcMode="spline" values="1 1; 1 1; 2 2; 2 2; 1 1; 1 1" keyTimes="0; 0.45; 0.516667; 0.791667; 0.825; 1" keySplines="0 0 1 1; 0.333 0 0.667 1; 0.167 0 0.667 1; 0.167 0 0.833 1; 0 0 1 1" fill="freeze" /><g transform="translate(-24,-24)"><g transform="matrix(1,0,0,1,24,24)"><path d="M-15.694,3.946C-15.694,3.946,-7.057,12.69,-7.057,12.69C-6.65,13.103,-5.989,13.103,-5.582,12.69C-5.582,12.69,15.695,-8.852,15.695,-8.852C16.102,-9.264,16.102,-9.933,15.695,-10.346C15.695,-10.346,13.379,-12.691,13.379,-12.691C12.971,-13.103,12.31,-13.103,11.903,-12.691C11.903,-12.691,-6.319,5.758,-6.319,5.758C-6.319,5.758,-11.902,0.107,-11.902,0.107C-12.309,-0.306,-12.97,-0.306,-13.377,0.107C-13.377,0.107,-15.694,2.452,-15.694,2.452C-16.102,2.865,-16.102,3.533,-15.694,3.946Z" fill="#d9e0e6"><animate repeatCount="indefinite" attributeName="d" dur="4s" begin="0s" calcMode="spline" values="M-15.694,3.946C-15.694,3.946,-7.057,12.69,-7.057,12.69C-6.65,13.103,-5.989,13.103,-5.582,12.69C-5.582,12.69,15.695,-8.852,15.695,-8.852C16.102,-9.264,16.102,-9.933,15.695,-10.346C15.695,-10.346,13.379,-12.691,13.379,-12.691C12.971,-13.103,12.31,-13.103,11.903,-12.691C11.903,-12.691,-6.319,5.758,-6.319,5.758C-6.319,5.758,-11.902,0.107,-11.902,0.107C-12.309,-0.306,-12.97,-0.306,-13.377,0.107C-13.377,0.107,-15.694,2.452,-15.694,2.452C-16.102,2.865,-16.102,3.533,-15.694,3.946Z; M-15.694,3.946C-15.694,3.946,-7.057,12.69,-7.057,12.69C-6.65,13.103,-5.989,13.103,-5.582,12.69C-5.582,12.69,15.695,-8.852,15.695,-8.852C16.102,-9.264,16.102,-9.933,15.695,-10.346C15.695,-10.346,13.379,-12.691,13.379,-12.691C12.971,-13.103,12.31,-13.103,11.903,-12.691C11.903,-12.691,-6.319,5.758,-6.319,5.758C-6.319,5.758,-11.902,0.107,-11.902,0.107C-12.309,-0.306,-12.97,-0.306,-13.377,0.107C-13.377,0.107,-15.694,2.452,-15.694,2.452C-16.102,2.865,-16.102,3.533,-15.694,3.946Z; M-20.366,2.956C-20.366,2.956,-6.057,1.737,-6.057,1.737C-6,1.765,-6.313,1.828,-6.02,1.737C-6.02,1.737,9.133,0.57,9.133,0.57C9.126,0.547,9.375,0.781,9.445,0.638C9.445,0.638,9.441,-0.019,9.441,-0.019C9.437,-0.094,9.125,-0.156,9.09,-0.144C9.09,-0.144,-6.069,-1.633,-6.069,-1.633C-6.069,-1.633,-20.324,-2.9,-20.324,-2.9C-20.484,-2.875,-20.546,-2.813,-20.488,-2.784C-20.488,-2.784,-20.491,2.811,-20.491,2.811C-20.484,2.937,-20.734,2.937,-20.366,2.956Z; M-20.366,2.956C-20.366,2.956,-6.057,1.737,-6.057,1.737C-6,1.765,-6.313,1.828,-6.02,1.737C-6.02,1.737,9.133,0.57,9.133,0.57C9.126,0.547,9.375,0.781,9.445,0.638C9.445,0.638,9.441,-0.019,9.441,-0.019C9.437,-0.094,9.125,-0.156,9.09,-0.144C9.09,-0.144,-6.069,-1.633,-6.069,-1.633C-6.069,-1.633,-20.324,-2.9,-20.324,-2.9C-20.484,-2.875,-20.546,-2.813,-20.488,-2.784C-20.488,-2.784,-20.491,2.811,-20.491,2.811C-20.484,2.937,-20.734,2.937,-20.366,2.956Z" keyTimes="0; 0.75; 0.791667; 1" keySplines="0 0 1 1; 0.333 0 0.667 1; 0 0 1 1" fill="freeze" /></path></g></g></g></g></g></g></g></g></svg>