<svg width="15" height="15" viewBox="0 0 15 15" fill="none" xmlns="http://www.w3.org/2000/svg">
<path d="M4.67648 12.8627C4.99939 12.8627 5.26115 12.6009 5.26115 12.278C5.26115 11.9551 4.99939 11.6934 4.67648 11.6934C4.35357 11.6934 4.0918 11.9551 4.0918 12.278C4.0918 12.6009 4.35357 12.8627 4.67648 12.8627Z" stroke="white" stroke-width="1.16936" stroke-linecap="round" stroke-linejoin="round"/>
<path d="M11.1091 12.8627C11.432 12.8627 11.6938 12.6009 11.6938 12.278C11.6938 11.9551 11.432 11.6934 11.1091 11.6934C10.7862 11.6934 10.5244 11.9551 10.5244 12.278C10.5244 12.6009 10.7862 12.8627 11.1091 12.8627Z" stroke="white" stroke-width="1.16936" stroke-linecap="round" stroke-linejoin="round"/>
<path d="M1.19824 1.19922H2.3676L3.92285 8.46093C3.9799 8.72688 4.12788 8.96462 4.34131 9.13323C4.55474 9.30184 4.82027 9.39077 5.0922 9.38472H10.8104C11.0765 9.38429 11.3345 9.2931 11.5418 9.1262C11.7491 8.9593 11.8933 8.72669 11.9505 8.46678L12.9152 4.12261" stroke="white" stroke-width="1.16936" stroke-linecap="round" stroke-linejoin="round"/>
<path d="M5.92383 4.38281L8.00139 2.30525L10.079 4.38281" stroke="white" stroke-width="1.03878" stroke-linecap="round" stroke-linejoin="round"/>
<path d="M8.00293 7.37891L8.00293 3.46148" stroke="white" stroke-width="0.823544" stroke-linecap="round" stroke-linejoin="round"/>
</svg>
